<svg width="294" height="105" viewBox="0 0 294 105" fill="none" xmlns="http://www.w3.org/2000/svg">
<path d="M8.63459 17.1705C7.93857 17.1705 7.32599 16.9876 6.79688 16.6218C6.26776 16.2525 5.85405 15.7482 5.55575 15.109C5.26101 14.4698 5.11364 13.7454 5.11364 12.9357C5.11364 12.1261 5.26278 11.4016 5.56108 10.7624C5.85938 10.1232 6.27308 9.61896 6.8022 9.24964C7.33132 8.88033 7.94034 8.69567 8.62926 8.69567C9.14773 8.69567 9.62003 8.8022 10.0462 9.01527C10.4759 9.22834 10.831 9.52486 11.1115 9.90483C11.3956 10.2848 11.5767 10.7251 11.6548 11.2259H10.9943C10.8878 10.6719 10.6214 10.2138 10.1953 9.85156C9.77273 9.4858 9.25249 9.30291 8.63459 9.30291C8.08061 9.30291 7.587 9.45916 7.15376 9.77166C6.72053 10.0806 6.37962 10.5085 6.13104 11.0554C5.88246 11.5987 5.75817 12.2219 5.75817 12.9251C5.75817 13.6175 5.87891 14.239 6.12038 14.7894C6.36186 15.3363 6.69922 15.7695 7.13246 16.0891C7.5657 16.4087 8.06641 16.5685 8.63459 16.5685C9.03587 16.5685 9.40163 16.4886 9.73189 16.3288C10.0657 16.169 10.3445 15.9418 10.5682 15.647C10.7919 15.3523 10.9393 15.0078 11.0103 14.6136H11.6708C11.5927 15.1179 11.4151 15.5618 11.1381 15.9453C10.8612 16.3288 10.5078 16.6289 10.0781 16.8455C9.64844 17.0621 9.16726 17.1705 8.63459 17.1705ZM16.9283 17.1705C16.2536 17.1705 15.6534 16.9893 15.1278 16.6271C14.6023 16.2614 14.1886 15.7589 13.8867 15.1197C13.5849 14.4805 13.4339 13.7525 13.4339 12.9357C13.4339 12.1154 13.5849 11.3874 13.8867 10.7518C14.1886 10.1126 14.6023 9.61009 15.1278 9.24432C15.6534 8.87855 16.2536 8.69567 16.9283 8.69567C17.603 8.69567 18.2031 8.87855 18.7287 9.24432C19.2543 9.61009 19.668 10.1126 19.9698 10.7518C20.2717 11.391 20.4226 12.119 20.4226 12.9357C20.4226 13.7525 20.2717 14.4805 19.9698 15.1197C19.668 15.7589 19.2543 16.2614 18.7287 16.6271C18.2031 16.9893 17.603 17.1705 16.9283 17.1705ZM16.9283 16.5685C17.5 16.5685 17.9989 16.407 18.4251 16.0838C18.8548 15.7607 19.1868 15.3239 19.4212 14.7734C19.6591 14.223 19.7781 13.6104 19.7781 12.9357C19.7781 12.261 19.6591 11.6502 19.4212 11.1033C19.1832 10.5529 18.8512 10.1161 18.4251 9.79297C17.9989 9.46626 17.5 9.30291 16.9283 9.30291C16.3565 9.30291 15.8576 9.46626 15.4315 9.79297C15.0053 10.1161 14.6733 10.5529 14.4354 11.1033C14.1974 11.6502 14.0785 12.261 14.0785 12.9357C14.0785 13.6104 14.1957 14.223 14.43 14.7734C14.668 15.3239 15 15.7607 15.4261 16.0838C15.8558 16.407 16.3565 16.5685 16.9283 16.5685ZM23.311 11.6946V17H22.6611V8.81818H23.295V10.1126H23.3589C23.5507 9.68999 23.8579 9.35085 24.2805 9.09517C24.703 8.83949 25.2055 8.71165 25.7879 8.71165C26.3383 8.71165 26.8213 8.82884 27.2368 9.06321C27.6558 9.29759 27.9825 9.63139 28.2169 10.0646C28.4548 10.4943 28.5738 11.0075 28.5738 11.604V17H27.9239V11.6307C27.9239 10.9347 27.7162 10.3754 27.3007 9.95277C26.8888 9.52663 26.3437 9.31357 25.6654 9.31357C25.2108 9.31357 24.806 9.413 24.4509 9.61186C24.0958 9.81072 23.817 10.0895 23.6146 10.4482C23.4122 10.8033 23.311 11.2188 23.311 11.6946ZM36.4733 10.5813L35.8714 10.7411C35.7755 10.4428 35.6388 10.1854 35.4612 9.96875C35.2836 9.75213 35.0599 9.58523 34.79 9.46804C34.5237 9.3473 34.2041 9.28693 33.8312 9.28693C33.2311 9.28693 32.7393 9.43608 32.3557 9.73438C31.9758 10.0327 31.7858 10.4215 31.7858 10.9009C31.7858 11.2915 31.9154 11.6147 32.1746 11.8704C32.4339 12.1225 32.8298 12.3143 33.3625 12.4457L34.6196 12.7599C35.2659 12.9197 35.7524 13.179 36.0791 13.5376C36.4058 13.8928 36.5692 14.3349 36.5692 14.864C36.5692 15.315 36.4466 15.7145 36.2016 16.0625C35.9566 16.4105 35.6175 16.6822 35.1842 16.8775C34.7545 17.0728 34.2538 17.1705 33.6821 17.1705C32.9186 17.1705 32.2918 16.9929 31.8018 16.6378C31.3117 16.2791 30.9974 15.766 30.8589 15.0984L31.4822 14.9386C31.5993 15.4712 31.8426 15.8778 32.2119 16.1584C32.5848 16.4354 33.0731 16.5739 33.6768 16.5739C34.3444 16.5739 34.8824 16.4158 35.2907 16.0998C35.7027 15.7837 35.9086 15.3789 35.9086 14.8853C35.9086 14.5089 35.7879 14.1911 35.5464 13.9318C35.305 13.6726 34.9392 13.4826 34.4491 13.3619L33.1441 13.0423C32.4765 12.8789 31.9758 12.6179 31.642 12.2592C31.3081 11.897 31.1412 11.4513 31.1412 10.9222C31.1412 10.4819 31.2567 10.0948 31.4875 9.76101C31.7183 9.4272 32.0361 9.16619 32.441 8.97798C32.8458 8.78977 33.3092 8.69567 33.8312 8.69567C34.5237 8.69567 35.0883 8.85902 35.5251 9.18572C35.9619 9.51243 36.278 9.97763 36.4733 10.5813ZM41.7108 8.81818V9.39879H38.1365V8.81818H41.7108ZM39.3457 6.85795H39.9902V15.0664C39.9902 15.4002 40.0542 15.6737 40.182 15.8867C40.3134 16.0962 40.4838 16.2525 40.6934 16.3555C40.9064 16.4549 41.1337 16.5046 41.3752 16.5046C41.4924 16.5046 41.5936 16.4957 41.6788 16.478C41.7676 16.4602 41.851 16.4371 41.9292 16.4087L42.089 17C41.9895 17.0355 41.8794 17.0657 41.7587 17.0906C41.638 17.119 41.4959 17.1332 41.3326 17.1332C40.9917 17.1332 40.6685 17.0568 40.3631 16.9041C40.0613 16.7514 39.8162 16.5295 39.628 16.2383C39.4398 15.9471 39.3457 15.5955 39.3457 15.1836V6.85795ZM59.9731 10.0433H57.3097C57.2742 9.76989 57.2014 9.52308 57.0914 9.30291C56.9813 9.08274 56.8357 8.89453 56.6546 8.73828C56.4735 8.58203 56.2586 8.46307 56.01 8.38139C55.765 8.29616 55.4933 8.25355 55.195 8.25355C54.6659 8.25355 54.2096 8.38317 53.8261 8.6424C53.4461 8.90163 53.1531 9.27628 52.9472 9.76633C52.7448 10.2564 52.6436 10.8494 52.6436 11.5455C52.6436 12.2699 52.7465 12.8771 52.9525 13.3672C53.162 13.8537 53.455 14.2212 53.8314 14.4698C54.2114 14.7148 54.6606 14.8374 55.1791 14.8374C55.4703 14.8374 55.7348 14.8001 55.9727 14.7255C56.2142 14.6509 56.4255 14.5426 56.6066 14.4006C56.7913 14.255 56.9422 14.0792 57.0594 13.8732C57.1801 13.6637 57.2636 13.4276 57.3097 13.1648L59.9731 13.1808C59.9269 13.6637 59.7867 14.1396 59.5523 14.6083C59.3215 15.0771 59.0036 15.505 58.5988 15.892C58.194 16.2756 57.7004 16.581 57.118 16.8082C56.5392 17.0355 55.8751 17.1491 55.1258 17.1491C54.1386 17.1491 53.2544 16.9325 52.4731 16.4993C51.6954 16.0625 51.0811 15.4268 50.6301 14.5923C50.1791 13.7578 49.9536 12.7422 49.9536 11.5455C49.9536 10.3452 50.1826 9.32777 50.6407 8.49325C51.0988 7.65874 51.7185 7.02486 52.4997 6.59162C53.281 6.15838 54.1563 5.94176 55.1258 5.94176C55.7863 5.94176 56.3971 6.03409 56.9582 6.21875C57.5193 6.39986 58.0129 6.66619 58.439 7.01776C58.8651 7.36577 59.2114 7.79368 59.4777 8.30149C59.7441 8.8093 59.9092 9.38991 59.9731 10.0433ZM74.7784 11.5455C74.7784 12.7457 74.5476 13.7631 74.0859 14.5977C73.6243 15.4322 72.9993 16.0661 72.2109 16.4993C71.4261 16.9325 70.5455 17.1491 69.5689 17.1491C68.5888 17.1491 67.7063 16.9308 66.9215 16.494C66.1367 16.0572 65.5135 15.4233 65.0518 14.5923C64.5938 13.7578 64.3647 12.7422 64.3647 11.5455C64.3647 10.3452 64.5938 9.32777 65.0518 8.49325C65.5135 7.65874 66.1367 7.02486 66.9215 6.59162C67.7063 6.15838 68.5888 5.94176 69.5689 5.94176C70.5455 5.94176 71.4261 6.15838 72.2109 6.59162C72.9993 7.02486 73.6243 7.65874 74.0859 8.49325C74.5476 9.32777 74.7784 10.3452 74.7784 11.5455ZM72.0831 11.5455C72.0831 10.8352 71.9819 10.2351 71.7795 9.74503C71.5806 9.25497 71.293 8.88388 70.9165 8.63175C70.5437 8.37962 70.0945 8.25355 69.5689 8.25355C69.0469 8.25355 68.5977 8.37962 68.2212 8.63175C67.8448 8.88388 67.5554 9.25497 67.353 9.74503C67.1541 10.2351 67.0547 10.8352 67.0547 11.5455C67.0547 12.2557 67.1541 12.8558 67.353 13.3459C67.5554 13.8359 67.8448 14.207 68.2212 14.4592C68.5977 14.7113 69.0469 14.8374 69.5689 14.8374C70.0945 14.8374 70.5437 14.7113 70.9165 14.4592C71.293 14.207 71.5806 13.8359 71.7795 13.3459C71.9819 12.8558 72.0831 12.2557 72.0831 11.5455ZM88.6023 6.09091V17H86.3651L82.0238 10.7038H81.9545V17H79.3178V6.09091H81.587L85.8803 12.3764H85.9709V6.09091H88.6023ZM92.9033 8.23224V6.09091H102.124V8.23224H98.816V17H96.2165V8.23224H92.9033ZM107.409 17H104.575L108.256 6.09091H111.766L115.447 17H112.613L110.051 8.83949H109.966L107.409 17ZM107.031 12.7067H112.954V14.7095H107.031V12.7067ZM129.011 10.0433H126.348C126.312 9.76989 126.24 9.52308 126.129 9.30291C126.019 9.08274 125.874 8.89453 125.693 8.73828C125.512 8.58203 125.297 8.46307 125.048 8.38139C124.803 8.29616 124.531 8.25355 124.233 8.25355C123.704 8.25355 123.248 8.38317 122.864 8.6424C122.484 8.90163 122.191 9.27628 121.985 9.76633C121.783 10.2564 121.682 10.8494 121.682 11.5455C121.682 12.2699 121.785 12.8771 121.991 13.3672C122.2 13.8537 122.493 14.2212 122.869 14.4698C123.249 14.7148 123.699 14.8374 124.217 14.8374C124.508 14.8374 124.773 14.8001 125.011 14.7255C125.252 14.6509 125.464 14.5426 125.645 14.4006C125.829 14.255 125.98 14.0792 126.097 13.8732C126.218 13.6637 126.302 13.4276 126.348 13.1648L129.011 13.1808C128.965 13.6637 128.825 14.1396 128.59 14.6083C128.36 15.0771 128.042 15.505 127.637 15.892C127.232 16.2756 126.738 16.581 126.156 16.8082C125.577 17.0355 124.913 17.1491 124.164 17.1491C123.177 17.1491 122.292 16.9325 121.511 16.4993C120.733 16.0625 120.119 15.4268 119.668 14.5923C119.217 13.7578 118.992 12.7422 118.992 11.5455C118.992 10.3452 119.221 9.32777 119.679 8.49325C120.137 7.65874 120.757 7.02486 121.538 6.59162C122.319 6.15838 123.194 5.94176 124.164 5.94176C124.824 5.94176 125.435 6.03409 125.996 6.21875C126.557 6.39986 127.051 6.66619 127.477 7.01776C127.903 7.36577 128.249 7.79368 128.516 8.30149C128.782 8.8093 128.947 9.38991 129.011 10.0433ZM133.163 8.23224V6.09091H142.384V8.23224H139.076V17H136.476V8.23224H133.163ZM0.975 31.345V30.61H8.025V31.345H0.975ZM0.975 34.21V33.475H8.025V34.21H0.975ZM14.6791 39.07C14.3891 39.07 14.1691 38.985 14.0191 38.815C13.8691 38.645 13.7941 38.43 13.7941 38.17V34.135C13.7941 33.695 13.6591 33.37 13.3891 33.16C13.1291 32.94 12.7791 32.83 12.3391 32.83V31.84C12.7791 31.84 13.1291 31.735 13.3891 31.525C13.6591 31.305 13.7941 30.975 13.7941 30.535V26.5C13.7941 26.24 13.8691 26.025 14.0191 25.855C14.1691 25.685 14.3891 25.6 14.6791 25.6H16.0291V26.275H14.5441V30.445C14.5441 30.925 14.4091 31.33 14.1391 31.66C13.8791 31.98 13.5341 32.165 13.1041 32.215V32.455C13.5341 32.505 13.8791 32.695 14.1391 33.025C14.4091 33.345 14.5441 33.745 14.5441 34.225V38.395H16.0291V39.07H14.6791ZM8.83992 85.6C9.12992 85.6 9.34992 85.685 9.49992 85.855C9.64992 86.025 9.72492 86.24 9.72492 86.5V90.535C9.72492 90.975 9.85492 91.305 10.1149 91.525C10.3849 91.735 10.7399 91.84 11.1799 91.84V92.83C10.7399 92.83 10.3849 92.94 10.1149 93.16C9.85492 93.37 9.72492 93.695 9.72492 94.135V98.17C9.72492 98.43 9.64992 98.645 9.49992 98.815C9.34992 98.985 9.12992 99.07 8.83992 99.07H7.48992V98.395H8.97492V94.225C8.97492 93.745 9.10492 93.345 9.36492 93.025C9.63492 92.695 9.98992 92.505 10.4299 92.455V92.215C9.98992 92.165 9.63492 91.98 9.36492 91.66C9.10492 91.33 8.97492 90.925 8.97492 90.445V86.275H7.48992V85.6H8.83992Z" fill="white"/>
<path d="M42.321 63.7037V53.5219H49.1818V55.2967H44.4737V57.7229H48.8288V59.4977H44.4737V61.9288H49.2017V63.7037H42.321ZM50.8535 63.7037V56.0673H52.8719V57.4146H52.9614C53.1205 56.9672 53.3857 56.6142 53.7569 56.3557C54.1281 56.0972 54.5722 55.9679 55.0893 55.9679C55.6129 55.9679 56.0587 56.0988 56.4266 56.3607C56.7945 56.6192 57.0398 56.9705 57.1624 57.4146H57.242C57.3977 56.9771 57.6795 56.6275 58.0871 56.3656C58.4981 56.1005 58.9837 55.9679 59.5438 55.9679C60.2564 55.9679 60.8348 56.1949 61.2789 56.649C61.7263 57.0998 61.9501 57.7395 61.9501 58.5681V63.7037H59.8371V58.9857C59.8371 58.5614 59.7244 58.2432 59.4991 58.0311C59.2737 57.819 58.992 57.7129 58.6539 57.7129C58.2694 57.7129 57.9695 57.8356 57.754 58.0808C57.5386 58.3228 57.4309 58.6426 57.4309 59.0404V63.7037H55.3776V58.9409C55.3776 58.5664 55.2699 58.2681 55.0545 58.046C54.8423 57.824 54.5623 57.7129 54.2143 57.7129C53.9789 57.7129 53.7668 57.7726 53.5779 57.8919C53.3923 58.0079 53.2448 58.172 53.1354 58.3841C53.0261 58.5929 52.9714 58.8382 52.9714 59.1199V63.7037H50.8535ZM65.8006 63.8479C65.3133 63.8479 64.8792 63.7634 64.498 63.5943C64.1168 63.422 63.8152 63.1684 63.5932 62.8337C63.3744 62.4956 63.265 62.0747 63.265 61.5709C63.265 61.1466 63.3429 60.7904 63.4987 60.502C63.6545 60.2136 63.8666 59.9816 64.1351 59.806C64.4035 59.6303 64.7085 59.4977 65.0498 59.4083C65.3945 59.3188 65.7558 59.2558 66.1337 59.2193C66.5778 59.1729 66.9357 59.1298 67.2075 59.0901C67.4793 59.047 67.6765 58.984 67.7991 58.9011C67.9218 58.8183 67.9831 58.6957 67.9831 58.5333V58.5034C67.9831 58.1886 67.8837 57.9449 67.6848 57.7726C67.4892 57.6002 67.2108 57.5141 66.8496 57.5141C66.4684 57.5141 66.1651 57.5986 65.9398 57.7676C65.7144 57.9333 65.5652 58.1422 65.4923 58.394L63.5335 58.235C63.6329 57.7709 63.8285 57.3699 64.1202 57.0318C64.4118 56.6904 64.788 56.4286 65.2487 56.2463C65.7127 56.0607 66.2497 55.9679 66.8595 55.9679C67.2838 55.9679 67.6898 56.0176 68.0775 56.1171C68.4686 56.2165 68.815 56.3706 69.1166 56.5794C69.4215 56.7882 69.6618 57.0567 69.8375 57.3848C70.0132 57.7096 70.101 58.0991 70.101 58.5531V63.7037H68.0925V62.6448H68.0328C67.9102 62.8834 67.7461 63.0939 67.5406 63.2761C67.3351 63.4551 67.0882 63.596 66.7998 63.6987C66.5115 63.7982 66.1784 63.8479 65.8006 63.8479ZM66.4071 62.3862C66.7186 62.3862 66.9937 62.3249 67.2324 62.2023C67.471 62.0763 67.6583 61.9073 67.7942 61.6952C67.9301 61.4831 67.998 61.2428 67.998 60.9743V60.1639C67.9317 60.207 67.8406 60.2468 67.7246 60.2833C67.6119 60.3164 67.4843 60.3479 67.3418 60.3777C67.1992 60.4042 67.0567 60.4291 66.9142 60.4523C66.7717 60.4722 66.6424 60.4904 66.5264 60.507C66.2778 60.5434 66.0607 60.6014 65.8751 60.681C65.6895 60.7605 65.5454 60.8682 65.4426 61.0041C65.3399 61.1367 65.2885 61.3024 65.2885 61.5013C65.2885 61.7896 65.3929 62.01 65.6017 62.1625C65.8138 62.3117 66.0823 62.3862 66.4071 62.3862ZM71.7441 63.7037V56.0673H73.862V63.7037H71.7441ZM72.808 55.083C72.4931 55.083 72.223 54.9786 71.9976 54.7698C71.7756 54.5576 71.6646 54.3041 71.6646 54.0091C71.6646 53.7174 71.7756 53.4672 71.9976 53.2584C72.223 53.0463 72.4931 52.9402 72.808 52.9402C73.1229 52.9402 73.3914 53.0463 73.6134 53.2584C73.8388 53.4672 73.9515 53.7174 73.9515 54.0091C73.9515 54.3041 73.8388 54.5576 73.6134 54.7698C73.3914 54.9786 73.1229 55.083 72.808 55.083ZM77.6764 53.5219V63.7037H75.5585V53.5219H77.6764ZM83.8512 63.833C83.523 63.833 83.2413 63.717 83.006 63.485C82.774 63.2496 82.658 62.9679 82.658 62.6398C82.658 62.315 82.774 62.0366 83.006 61.8046C83.2413 61.5725 83.523 61.4565 83.8512 61.4565C84.1693 61.4565 84.4478 61.5725 84.6864 61.8046C84.925 62.0366 85.0443 62.315 85.0443 62.6398C85.0443 62.8585 84.988 63.0591 84.8753 63.2413C84.7659 63.4203 84.6218 63.5645 84.4428 63.6739C84.2638 63.7799 84.0666 63.833 83.8512 63.833ZM83.8512 58.4835C83.523 58.4835 83.2413 58.3675 83.006 58.1355C82.774 57.9035 82.658 57.6218 82.658 57.2904C82.658 56.9655 82.774 56.6888 83.006 56.4601C83.2413 56.2281 83.523 56.1121 83.8512 56.1121C84.1693 56.1121 84.4478 56.2281 84.6864 56.4601C84.925 56.6888 85.0443 56.9655 85.0443 57.2904C85.0443 57.5124 84.988 57.7146 84.8753 57.8969C84.7659 58.0759 84.6218 58.2184 84.4428 58.3244C84.2638 58.4305 84.0666 58.4835 83.8512 58.4835ZM119.693 63.7037V53.5219H125.584V54.3571H120.622V58.1902H125.122V59.0254H120.622V63.7037H119.693ZM130.239 63.8628C129.526 63.8628 128.91 63.6971 128.389 63.3656C127.869 63.0309 127.466 62.5685 127.181 61.9786C126.899 61.3853 126.758 60.7025 126.758 59.9303C126.758 59.1613 126.899 58.4786 127.181 57.882C127.466 57.2821 127.859 56.8131 128.359 56.475C128.863 56.1336 129.445 55.9629 130.104 55.9629C130.519 55.9629 130.918 56.0392 131.303 56.1916C131.687 56.3408 132.032 56.5711 132.337 56.8827C132.645 57.1909 132.888 57.5804 133.067 58.051C133.246 58.5183 133.336 59.0718 133.336 59.7115V60.149H127.37V59.3685H132.431C132.431 58.8779 132.332 58.4371 132.133 58.046C131.937 57.6516 131.664 57.3401 131.312 57.1114C130.964 56.8827 130.562 56.7683 130.104 56.7683C129.62 56.7683 129.195 56.8976 128.827 57.1561C128.459 57.4146 128.17 57.756 127.962 58.1803C127.756 58.6045 127.652 59.0685 127.648 59.5723V60.0396C127.648 60.6462 127.753 61.1765 127.962 61.6306C128.174 62.0813 128.474 62.431 128.861 62.6796C129.249 62.9281 129.708 63.0524 130.239 63.0524C130.6 63.0524 130.916 62.9961 131.188 62.8834C131.463 62.7707 131.694 62.6199 131.879 62.431C132.068 62.2387 132.211 62.0283 132.307 61.7996L133.147 62.073C133.031 62.3945 132.84 62.6912 132.575 62.9629C132.313 63.2347 131.985 63.4535 131.591 63.6192C131.2 63.7816 130.749 63.8628 130.239 63.8628ZM138.035 63.8628C137.409 63.8628 136.86 63.6971 136.39 63.3656C135.919 63.0342 135.551 62.5718 135.286 61.9786C135.024 61.3853 134.893 60.6942 134.893 59.9054C134.893 59.1199 135.024 58.4322 135.286 57.8422C135.551 57.2489 135.921 56.7882 136.395 56.4601C136.869 56.1287 137.42 55.9629 138.05 55.9629C138.514 55.9629 138.9 56.0458 139.209 56.2115C139.517 56.3739 139.764 56.5761 139.949 56.8181C140.135 57.06 140.279 57.2953 140.382 57.524H140.461V53.5219H141.351V63.7037H140.486V62.2868H140.382C140.279 62.5188 140.133 62.7574 139.944 63.0027C139.755 63.2447 139.505 63.4485 139.194 63.6142C138.885 63.7799 138.499 63.8628 138.035 63.8628ZM138.14 63.0524C138.634 63.0524 139.054 62.9182 139.402 62.6497C139.75 62.3779 140.016 62.0051 140.198 61.5311C140.384 61.0538 140.476 60.507 140.476 59.8905C140.476 59.2806 140.385 58.7421 140.203 58.2747C140.021 57.8041 139.755 57.4362 139.407 57.171C139.059 56.9026 138.637 56.7683 138.14 56.7683C137.629 56.7683 137.198 56.9075 136.847 57.1859C136.499 57.461 136.234 57.8339 136.052 58.3046C135.873 58.7752 135.783 59.3038 135.783 59.8905C135.783 60.4838 135.874 61.019 136.057 61.4963C136.239 61.9736 136.504 62.3531 136.852 62.6348C137.203 62.9132 137.633 63.0524 138.14 63.0524ZM146.959 63.8628C146.247 63.8628 145.63 63.6971 145.11 63.3656C144.59 63.0309 144.187 62.5685 143.902 61.9786C143.62 61.3853 143.479 60.7025 143.479 59.9303C143.479 59.1613 143.62 58.4786 143.902 57.882C144.187 57.2821 144.58 56.8131 145.08 56.475C145.584 56.1336 146.165 55.9629 146.825 55.9629C147.239 55.9629 147.639 56.0392 148.023 56.1916C148.408 56.3408 148.752 56.5711 149.057 56.8827C149.366 57.1909 149.609 57.5804 149.788 58.051C149.967 58.5183 150.057 59.0718 150.057 59.7115V60.149H144.091V59.3685H149.152C149.152 58.8779 149.052 58.4371 148.853 58.046C148.658 57.6516 148.384 57.3401 148.033 57.1114C147.685 56.8827 147.282 56.7683 146.825 56.7683C146.341 56.7683 145.915 56.8976 145.547 57.1561C145.179 57.4146 144.891 57.756 144.682 58.1803C144.477 58.6045 144.372 59.0685 144.369 59.5723V60.0396C144.369 60.6462 144.473 61.1765 144.682 61.6306C144.894 62.0813 145.194 62.431 145.582 62.6796C145.97 62.9281 146.429 63.0524 146.959 63.0524C147.321 63.0524 147.637 62.9961 147.909 62.8834C148.184 62.7707 148.414 62.6199 148.6 62.431C148.789 62.2387 148.931 62.0283 149.027 61.7996L149.868 62.073C149.752 62.3945 149.561 62.6912 149.296 62.9629C149.034 63.2347 148.706 63.4535 148.312 63.6192C147.92 63.7816 147.47 63.8628 146.959 63.8628ZM152.007 63.7037V56.0673H152.867V57.2406H152.931C153.084 56.8562 153.349 56.5463 153.727 56.3109C154.108 56.0723 154.539 55.953 155.019 55.953C155.092 55.953 155.174 55.9547 155.263 55.958C155.353 55.9613 155.427 55.9646 155.487 55.9679V56.8678C155.447 56.8611 155.377 56.8512 155.278 56.8379C155.179 56.8247 155.071 56.8181 154.955 56.8181C154.557 56.8181 154.202 56.9026 153.891 57.0716C153.583 57.2373 153.339 57.4677 153.16 57.7627C152.981 58.0576 152.892 58.394 152.892 58.7719V63.7037H152.007ZM157.007 63.7037V56.0673H157.897V63.7037H157.007ZM157.459 54.7548C157.277 54.7548 157.121 54.6935 156.992 54.5709C156.863 54.4449 156.798 54.2941 156.798 54.1185C156.798 53.9428 156.863 53.7937 156.992 53.671C157.121 53.5451 157.277 53.4821 157.459 53.4821C157.642 53.4821 157.797 53.5451 157.927 53.671C158.056 53.7937 158.121 53.9428 158.121 54.1185C158.121 54.2941 158.056 54.4449 157.927 54.5709C157.797 54.6935 157.642 54.7548 157.459 54.7548ZM163.22 63.8628C162.537 63.8628 161.942 63.6921 161.435 63.3507C160.932 63.0093 160.54 62.542 160.262 61.9487C159.984 61.3555 159.844 60.6793 159.844 59.9203C159.844 59.1547 159.985 58.4736 160.267 57.877C160.552 57.2804 160.946 56.8131 161.45 56.475C161.954 56.1336 162.539 55.9629 163.205 55.9629C163.716 55.9629 164.178 56.0624 164.592 56.2612C165.007 56.4568 165.348 56.7335 165.616 57.0915C165.888 57.4461 166.059 57.8604 166.129 58.3344H165.234C165.141 57.9035 164.917 57.5356 164.562 57.2307C164.211 56.9225 163.764 56.7683 163.22 56.7683C162.733 56.7683 162.302 56.9009 161.928 57.1661C161.553 57.4279 161.26 57.7941 161.048 58.2648C160.839 58.7321 160.734 59.274 160.734 59.8905C160.734 60.5103 160.837 61.0588 161.043 61.5361C161.248 62.01 161.536 62.3813 161.908 62.6497C162.282 62.9182 162.72 63.0524 163.22 63.0524C163.558 63.0524 163.866 62.9895 164.145 62.8635C164.427 62.7342 164.662 62.552 164.851 62.3166C165.043 62.0813 165.172 61.8012 165.239 61.4764H166.133C166.067 61.9371 165.903 62.3481 165.641 62.7094C165.383 63.0673 165.046 63.3491 164.632 63.5546C164.221 63.76 163.75 63.8628 163.22 63.8628ZM170.998 63.8628C170.339 63.8628 169.755 63.6954 169.248 63.3607C168.744 63.0259 168.35 62.5636 168.065 61.9736C167.78 61.3803 167.637 60.6959 167.637 59.9203C167.637 59.1381 167.78 58.4504 168.065 57.8571C168.35 57.2605 168.744 56.7965 169.248 56.4651C169.755 56.1303 170.339 55.9629 170.998 55.9629C171.658 55.9629 172.239 56.1303 172.743 56.4651C173.247 56.7998 173.641 57.2638 173.926 57.8571C174.215 58.4504 174.359 59.1381 174.359 59.9203C174.359 60.6959 174.216 61.3803 173.931 61.9736C173.646 62.5636 173.25 63.0259 172.743 63.3607C172.239 63.6954 171.658 63.8628 170.998 63.8628ZM170.998 63.0524C171.528 63.0524 171.978 62.9099 172.345 62.6249C172.713 62.3398 172.992 61.9603 173.181 61.4864C173.373 61.0124 173.469 60.4904 173.469 59.9203C173.469 59.3502 173.373 58.8266 173.181 58.3493C172.992 57.872 172.713 57.4892 172.345 57.2009C171.978 56.9125 171.528 56.7683 170.998 56.7683C170.471 56.7683 170.022 56.9125 169.651 57.2009C169.283 57.4892 169.003 57.872 168.811 58.3493C168.622 58.8266 168.527 59.3502 168.527 59.9203C168.527 60.4904 168.622 61.0124 168.811 61.4864C169.003 61.9603 169.283 62.3398 169.651 62.6249C170.019 62.9099 170.468 63.0524 170.998 63.0524ZM176.302 63.7037V56.0673H177.162V57.2406H177.226C177.379 56.8562 177.644 56.5463 178.022 56.3109C178.403 56.0723 178.834 55.953 179.314 55.953C179.387 55.953 179.469 55.9547 179.558 55.958C179.648 55.9613 179.722 55.9646 179.782 55.9679V56.8678C179.742 56.8611 179.672 56.8512 179.573 56.8379C179.473 56.8247 179.366 56.8181 179.25 56.8181C178.852 56.8181 178.497 56.9026 178.186 57.0716C177.878 57.2373 177.634 57.4677 177.455 57.7627C177.276 58.0576 177.187 58.394 177.187 58.7719V63.7037H176.302ZM183.425 63.8777C182.964 63.8777 182.543 63.7882 182.162 63.6092C181.781 63.427 181.477 63.1651 181.252 62.8237C181.027 62.479 180.914 62.0614 180.914 61.5709C180.914 61.1931 180.985 60.8749 181.128 60.6163C181.27 60.3578 181.472 60.1457 181.734 59.98C181.996 59.8143 182.306 59.6833 182.664 59.5872C183.022 59.4911 183.416 59.4165 183.847 59.3635C184.275 59.3105 184.636 59.2641 184.931 59.2243C185.229 59.1845 185.456 59.1216 185.612 59.0354C185.768 58.9492 185.846 58.81 185.846 58.6178V58.4388C185.846 57.9184 185.69 57.5091 185.379 57.2108C185.07 56.9092 184.626 56.7584 184.046 56.7584C183.496 56.7584 183.047 56.8794 182.699 57.1213C182.354 57.3633 182.112 57.6483 181.973 57.9764L181.133 57.6732C181.305 57.2556 181.544 56.9225 181.849 56.6739C182.154 56.422 182.495 56.2413 182.873 56.132C183.251 56.0193 183.633 55.9629 184.021 55.9629C184.313 55.9629 184.616 56.0011 184.931 56.0773C185.249 56.1535 185.544 56.2861 185.816 56.475C186.088 56.6606 186.308 56.9208 186.477 57.2556C186.646 57.587 186.731 58.0079 186.731 58.5183V63.7037H185.846V62.4956H185.791C185.685 62.721 185.528 62.9397 185.319 63.1519C185.11 63.364 184.848 63.538 184.533 63.6739C184.218 63.8098 183.849 63.8777 183.425 63.8777ZM183.544 63.0673C184.015 63.0673 184.422 62.9629 184.767 62.7541C185.112 62.5453 185.377 62.2686 185.562 61.9239C185.751 61.5759 185.846 61.1931 185.846 60.7754V59.6717C185.78 59.7347 185.669 59.7911 185.513 59.8408C185.36 59.8905 185.183 59.9352 184.981 59.975C184.782 60.0115 184.583 60.043 184.384 60.0695C184.185 60.096 184.006 60.1192 183.847 60.1391C183.416 60.1921 183.048 60.275 182.744 60.3877C182.439 60.5003 182.205 60.6561 182.043 60.855C181.88 61.0505 181.799 61.3024 181.799 61.6107C181.799 62.0747 181.965 62.4343 182.296 62.6895C182.628 62.9414 183.044 63.0673 183.544 63.0673ZM194.216 57.7428L193.405 57.9715C193.326 57.7428 193.213 57.5356 193.067 57.35C192.921 57.1644 192.731 57.0169 192.495 56.9075C192.263 56.7982 191.975 56.7435 191.63 56.7435C191.113 56.7435 190.689 56.8661 190.358 57.1114C190.026 57.3566 189.86 57.6732 189.86 58.0609C189.86 58.3891 189.973 58.6559 190.198 58.8614C190.427 59.0636 190.778 59.2243 191.252 59.3436L192.406 59.627C193.046 59.7828 193.524 60.0297 193.843 60.3678C194.164 60.7058 194.325 61.1301 194.325 61.6405C194.325 62.0714 194.206 62.4542 193.967 62.7889C193.728 63.1237 193.395 63.3872 192.968 63.5794C192.543 63.7683 192.051 63.8628 191.491 63.8628C190.745 63.8628 190.131 63.6954 189.647 63.3607C189.163 63.0226 188.853 62.5354 188.717 61.899L189.567 61.6902C189.676 62.1443 189.89 62.4873 190.208 62.7193C190.53 62.9513 190.952 63.0673 191.476 63.0673C192.063 63.0673 192.532 62.9364 192.883 62.6746C193.234 62.4094 193.41 62.078 193.41 61.6803C193.41 61.372 193.307 61.1135 193.102 60.9047C192.896 60.6926 192.585 60.5368 192.167 60.4374L190.919 60.1391C190.256 59.98 189.766 59.7281 189.448 59.3834C189.13 59.0387 188.97 58.6111 188.97 58.1007C188.97 57.6798 189.085 57.3102 189.314 56.9921C189.542 56.6706 189.857 56.4187 190.258 56.2364C190.659 56.0541 191.117 55.9629 191.63 55.9629C192.33 55.9629 192.888 56.122 193.306 56.4402C193.727 56.7551 194.03 57.1893 194.216 57.7428ZM199.37 53.5219V63.7037H198.44V54.4963H198.38L195.994 56.0823V55.1178L198.4 53.5219H199.37ZM205.525 53.3827C205.949 53.386 206.36 53.4722 206.758 53.6412C207.159 53.8069 207.52 54.0754 207.841 54.4466C208.163 54.8145 208.418 55.305 208.607 55.9182C208.796 56.528 208.89 57.2788 208.89 58.1703C208.89 59.0022 208.817 59.7645 208.672 60.4573C208.526 61.15 208.307 61.7499 208.015 62.257C207.727 62.7608 207.362 63.1519 206.922 63.4303C206.484 63.7054 205.972 63.8429 205.385 63.8429C204.839 63.8429 204.353 63.7286 203.929 63.4999C203.508 63.2712 203.166 62.9547 202.905 62.5503C202.643 62.1426 202.48 61.672 202.417 61.1384H203.332C203.422 61.6819 203.64 62.1294 203.988 62.4807C204.34 62.832 204.805 63.0077 205.385 63.0077C206.217 63.0077 206.864 62.6199 207.324 61.8443C207.785 61.0688 208.015 59.9651 208.015 58.5333H207.951C207.792 58.8315 207.583 59.0917 207.324 59.3138C207.069 59.5359 206.777 59.7099 206.449 59.8358C206.121 59.9584 205.775 60.0198 205.41 60.0198C204.844 60.0198 204.325 59.8772 203.854 59.5922C203.384 59.3038 203.007 58.9111 202.726 58.4139C202.444 57.9135 202.303 57.3434 202.303 56.7037C202.303 56.1005 202.436 55.547 202.701 55.0432C202.969 54.5361 203.344 54.1317 203.824 53.8301C204.308 53.5252 204.875 53.3761 205.525 53.3827ZM205.525 54.2179C205.084 54.2179 204.688 54.3306 204.336 54.556C203.988 54.778 203.712 55.078 203.506 55.4558C203.304 55.8304 203.203 56.2463 203.203 56.7037C203.203 57.1644 203.304 57.5837 203.506 57.9615C203.712 58.336 203.988 58.6343 204.336 58.8564C204.688 59.0752 205.084 59.1845 205.525 59.1845C205.863 59.1845 206.178 59.1166 206.469 58.9807C206.761 58.8415 207.013 58.6526 207.225 58.4139C207.44 58.1753 207.603 57.9052 207.712 57.6036C207.825 57.2986 207.87 56.9788 207.846 56.644C207.807 56.18 207.682 55.7657 207.473 55.4011C207.268 55.0333 206.996 54.7449 206.658 54.5361C206.323 54.324 205.946 54.2179 205.525 54.2179ZM216.676 66.3933C215.728 66.3933 214.876 66.2475 214.121 65.9558C213.365 65.6642 212.72 65.2432 212.187 64.6931C211.656 64.1462 211.249 63.4866 210.964 62.7144C210.682 61.9421 210.541 61.0787 210.541 60.1242C210.541 59.1895 210.683 58.341 210.969 57.5787C211.257 56.8164 211.666 56.1618 212.197 55.6149C212.73 55.0681 213.366 54.6471 214.106 54.3521C214.848 54.0538 215.673 53.9047 216.581 53.9047C217.47 53.9047 218.265 54.0605 218.968 54.372C219.67 54.6803 220.269 55.1012 220.763 55.6348C221.256 56.1684 221.633 56.7766 221.891 57.4594C222.153 58.1388 222.284 58.8498 222.284 59.5922C222.284 60.0628 222.247 60.5269 222.174 60.9842C222.105 61.4416 221.984 61.8559 221.812 62.2271C221.639 62.5984 221.401 62.895 221.096 63.1171C220.791 63.3358 220.405 63.4452 219.937 63.4452C219.692 63.4452 219.45 63.4054 219.211 63.3259C218.976 63.243 218.774 63.1088 218.605 62.9232C218.439 62.7342 218.343 62.4824 218.317 62.1675H218.267C218.161 62.4061 218.012 62.6249 217.819 62.8237C217.627 63.0193 217.39 63.1751 217.108 63.2911C216.83 63.4071 216.507 63.4601 216.139 63.4502C215.721 63.4402 215.345 63.3474 215.01 63.1717C214.679 62.9961 214.396 62.7558 214.16 62.4509C213.928 62.1459 213.751 61.793 213.628 61.3919C213.506 60.9876 213.444 60.5517 213.444 60.0844C213.444 59.6336 213.512 59.2177 213.648 58.8365C213.787 58.4554 213.978 58.1223 214.22 57.8372C214.465 57.5522 214.752 57.3252 215.08 57.1561C215.408 56.9871 215.761 56.8893 216.139 56.8628C216.477 56.8396 216.789 56.8727 217.074 56.9622C217.359 57.0484 217.601 57.1743 217.799 57.3401C217.998 57.5058 218.141 57.6931 218.227 57.9019H218.277V57.002H219.087V61.6107C219.087 61.9587 219.155 62.2305 219.291 62.426C219.43 62.6182 219.649 62.7144 219.947 62.7144C220.308 62.7144 220.602 62.5967 220.827 62.3614C221.056 62.1227 221.223 61.7714 221.329 61.3074C221.435 60.8401 221.488 60.265 221.488 59.5823C221.488 59.0652 221.415 58.5647 221.27 58.0808C221.127 57.5936 220.918 57.1429 220.643 56.7286C220.368 56.3109 220.03 55.9464 219.629 55.6348C219.228 55.3199 218.769 55.0747 218.252 54.899C217.738 54.7234 217.168 54.6355 216.542 54.6355C215.766 54.6355 215.062 54.7664 214.429 55.0283C213.796 55.2901 213.25 55.6646 212.793 56.1519C212.339 56.6391 211.989 57.2207 211.744 57.8969C211.499 58.5697 211.376 59.3204 211.376 60.149C211.376 60.9876 211.499 61.7449 211.744 62.421C211.989 63.0972 212.342 63.6755 212.803 64.1561C213.267 64.6367 213.827 65.0063 214.483 65.2648C215.14 65.5233 215.879 65.6526 216.701 65.6526C217.065 65.6526 217.423 65.6161 217.775 65.5432C218.129 65.4736 218.451 65.3874 218.739 65.2847C219.031 65.1819 219.266 65.0808 219.445 64.9814L219.699 65.6774C219.453 65.81 219.162 65.931 218.824 66.0404C218.489 66.1497 218.134 66.2359 217.76 66.2989C217.389 66.3618 217.027 66.3933 216.676 66.3933ZM216.243 62.6696C216.694 62.6696 217.074 62.5652 217.382 62.3564C217.69 62.1476 217.922 61.8476 218.078 61.4565C218.237 61.0654 218.317 60.5948 218.317 60.0446C218.317 59.4911 218.232 59.0354 218.063 58.6774C217.897 58.3195 217.66 58.0543 217.352 57.882C217.047 57.7063 216.686 57.6185 216.268 57.6185C215.864 57.6185 215.509 57.7295 215.204 57.9516C214.903 58.1703 214.666 58.4636 214.493 58.8315C214.324 59.1994 214.24 59.6038 214.24 60.0446C214.24 60.5119 214.314 60.9445 214.464 61.3422C214.616 61.7399 214.84 62.0614 215.135 62.3067C215.433 62.5486 215.803 62.6696 216.243 62.6696ZM227.053 66.7264C226.533 66.7264 226.077 66.6585 225.686 66.5226C225.295 66.39 224.965 66.2077 224.696 65.9757C224.428 65.7437 224.219 65.4835 224.07 65.1952L224.796 64.7179C224.905 64.9101 225.051 65.0991 225.233 65.2847C225.419 65.4703 225.659 65.6244 225.954 65.747C226.252 65.8697 226.619 65.931 227.053 65.931C227.729 65.931 228.274 65.7619 228.689 65.4239C229.106 65.0858 229.315 64.5605 229.315 63.8479V62.1277H229.235C229.133 62.3597 228.985 62.5917 228.793 62.8237C228.601 63.0524 228.349 63.243 228.037 63.3955C227.729 63.5479 227.346 63.6242 226.889 63.6242C226.279 63.6242 225.737 63.4734 225.263 63.1717C224.792 62.8701 224.421 62.4393 224.149 61.8791C223.881 61.3157 223.747 60.6445 223.747 59.8656C223.747 59.0934 223.878 58.4139 224.14 57.8273C224.405 57.2406 224.774 56.7833 225.248 56.4551C225.722 56.127 226.274 55.9629 226.904 55.9629C227.371 55.9629 227.759 56.0458 228.067 56.2115C228.375 56.3739 228.622 56.5761 228.808 56.8181C228.997 57.06 229.144 57.2953 229.25 57.524H229.34V56.0673H230.205V63.9026C230.205 64.5489 230.067 65.0808 229.792 65.4984C229.517 65.9161 229.143 66.2243 228.669 66.4232C228.195 66.6253 227.656 66.7264 227.053 66.7264ZM226.993 62.8138C227.484 62.8138 227.903 62.6961 228.251 62.4608C228.599 62.2222 228.866 61.8808 229.051 61.4367C229.237 60.9925 229.33 60.4639 229.33 59.8507C229.33 59.2541 229.239 58.7255 229.056 58.2648C228.874 57.8008 228.609 57.4362 228.261 57.171C227.916 56.9026 227.494 56.7683 226.993 56.7683C226.483 56.7683 226.052 56.9059 225.701 57.181C225.349 57.4561 225.084 57.8273 224.905 58.2946C224.726 58.7586 224.637 59.2773 224.637 59.8507C224.637 60.4341 224.728 60.9494 224.91 61.3969C225.092 61.841 225.359 62.189 225.711 62.4409C226.062 62.6895 226.489 62.8138 226.993 62.8138ZM232.548 63.7037V56.0673H233.408V57.2406H233.487C233.64 56.8462 233.893 56.5363 234.248 56.3109C234.606 56.0823 235.035 55.9679 235.536 55.9679C236.063 55.9679 236.495 56.0922 236.833 56.3408C237.175 56.586 237.43 56.9241 237.599 57.355H237.663C237.836 56.9307 238.116 56.5943 238.504 56.3458C238.895 56.0939 239.369 55.9679 239.926 55.9679C240.635 55.9679 241.195 56.1916 241.606 56.6391C242.017 57.0832 242.222 57.7328 242.222 58.5879V63.7037H241.337V58.5879C241.337 57.9847 241.183 57.5323 240.875 57.2307C240.567 56.9291 240.161 56.7783 239.657 56.7783C239.074 56.7783 238.625 56.9573 238.31 57.3152C237.995 57.6732 237.837 58.1272 237.837 58.6774V63.7037H236.933V58.5084C236.933 57.9913 236.788 57.5737 236.5 57.2556C236.212 56.9374 235.806 56.7783 235.282 56.7783C234.931 56.7783 234.614 56.8645 234.333 57.0368C234.054 57.2091 233.834 57.4494 233.671 57.7577C233.512 58.0626 233.433 58.4139 233.433 58.8117V63.7037H232.548ZM246.698 63.8777C246.237 63.8777 245.816 63.7882 245.435 63.6092C245.054 63.427 244.751 63.1651 244.526 62.8237C244.3 62.479 244.187 62.0614 244.187 61.5709C244.187 61.1931 244.259 60.8749 244.401 60.6163C244.544 60.3578 244.746 60.1457 245.008 59.98C245.27 59.8143 245.58 59.6833 245.937 59.5872C246.295 59.4911 246.69 59.4165 247.121 59.3635C247.548 59.3105 247.91 59.2641 248.205 59.2243C248.503 59.1845 248.73 59.1216 248.886 59.0354C249.041 58.9492 249.119 58.81 249.119 58.6178V58.4388C249.119 57.9184 248.963 57.5091 248.652 57.2108C248.344 56.9092 247.9 56.7584 247.32 56.7584C246.769 56.7584 246.32 56.8794 245.972 57.1213C245.628 57.3633 245.386 57.6483 245.246 57.9764L244.406 57.6732C244.579 57.2556 244.817 56.9225 245.122 56.6739C245.427 56.422 245.768 56.2413 246.146 56.132C246.524 56.0193 246.907 55.9629 247.295 55.9629C247.586 55.9629 247.89 56.0011 248.205 56.0773C248.523 56.1535 248.818 56.2861 249.089 56.475C249.361 56.6606 249.582 56.9208 249.751 57.2556C249.92 57.587 250.004 58.0079 250.004 58.5183V63.7037H249.119V62.4956H249.065C248.959 62.721 248.801 62.9397 248.592 63.1519C248.383 63.364 248.122 63.538 247.807 63.6739C247.492 63.8098 247.122 63.8777 246.698 63.8777ZM246.817 63.0673C247.288 63.0673 247.696 62.9629 248.04 62.7541C248.385 62.5453 248.65 62.2686 248.836 61.9239C249.025 61.5759 249.119 61.1931 249.119 60.7754V59.6717C249.053 59.7347 248.942 59.7911 248.786 59.8408C248.634 59.8905 248.456 59.9352 248.254 59.975C248.055 60.0115 247.856 60.043 247.658 60.0695C247.459 60.096 247.28 60.1192 247.121 60.1391C246.69 60.1921 246.322 60.275 246.017 60.3877C245.712 60.5003 245.478 60.6561 245.316 60.855C245.154 61.0505 245.072 61.3024 245.072 61.6107C245.072 62.0747 245.238 62.4343 245.57 62.6895C245.901 62.9414 246.317 63.0673 246.817 63.0673ZM252.368 63.7037V56.0673H253.258V63.7037H252.368ZM252.821 54.7548C252.638 54.7548 252.483 54.6935 252.353 54.5709C252.224 54.4449 252.159 54.2941 252.159 54.1185C252.159 53.9428 252.224 53.7937 252.353 53.671C252.483 53.5451 252.638 53.4821 252.821 53.4821C253.003 53.4821 253.159 53.5451 253.288 53.671C253.417 53.7937 253.482 53.9428 253.482 54.1185C253.482 54.2941 253.417 54.4449 253.288 54.5709C253.159 54.6935 253.003 54.7548 252.821 54.7548ZM256.483 53.5219V63.7037H255.598V53.5219H256.483ZM259.531 63.7783C259.335 63.7783 259.166 63.7087 259.024 63.5695C258.885 63.427 258.815 63.2579 258.815 63.0624C258.815 62.8635 258.885 62.6945 259.024 62.5553C259.166 62.4161 259.335 62.3465 259.531 62.3465C259.73 62.3465 259.899 62.4161 260.038 62.5553C260.177 62.6945 260.247 62.8635 260.247 63.0624C260.247 63.1916 260.214 63.3109 260.148 63.4203C260.085 63.5297 259.998 63.6175 259.889 63.6838C259.783 63.7468 259.664 63.7783 259.531 63.7783ZM265.568 63.8628C264.885 63.8628 264.29 63.6921 263.783 63.3507C263.279 63.0093 262.888 62.542 262.61 61.9487C262.331 61.3555 262.192 60.6793 262.192 59.9203C262.192 59.1547 262.333 58.4736 262.615 57.877C262.9 57.2804 263.294 56.8131 263.798 56.475C264.302 56.1336 264.887 55.9629 265.553 55.9629C266.063 55.9629 266.526 56.0624 266.94 56.2612C267.354 56.4568 267.696 56.7335 267.964 57.0915C268.236 57.4461 268.407 57.8604 268.476 58.3344H267.581C267.488 57.9035 267.265 57.5356 266.91 57.2307C266.559 56.9225 266.111 56.7683 265.568 56.7683C265.081 56.7683 264.65 56.9009 264.275 57.1661C263.901 57.4279 263.607 57.7941 263.395 58.2648C263.186 58.7321 263.082 59.274 263.082 59.8905C263.082 60.5103 263.185 61.0588 263.39 61.5361C263.596 62.01 263.884 62.3813 264.255 62.6497C264.63 62.9182 265.067 63.0524 265.568 63.0524C265.906 63.0524 266.214 62.9895 266.492 62.8635C266.774 62.7342 267.01 62.552 267.198 62.3166C267.391 62.0813 267.52 61.8012 267.586 61.4764H268.481C268.415 61.9371 268.251 62.3481 267.989 62.7094C267.73 63.0673 267.394 63.3491 266.98 63.5546C266.569 63.76 266.098 63.8628 265.568 63.8628ZM273.346 63.8628C272.686 63.8628 272.103 63.6954 271.596 63.3607C271.092 63.0259 270.698 62.5636 270.413 61.9736C270.128 61.3803 269.985 60.6959 269.985 59.9203C269.985 59.1381 270.128 58.4504 270.413 57.8571C270.698 57.2605 271.092 56.7965 271.596 56.4651C272.103 56.1303 272.686 55.9629 273.346 55.9629C274.005 55.9629 274.587 56.1303 275.091 56.4651C275.595 56.7998 275.989 57.2638 276.274 57.8571C276.562 58.4504 276.707 59.1381 276.707 59.9203C276.707 60.6959 276.564 61.3803 276.279 61.9736C275.994 62.5636 275.598 63.0259 275.091 63.3607C274.587 63.6954 274.005 63.8628 273.346 63.8628ZM273.346 63.0524C273.876 63.0524 274.325 62.9099 274.693 62.6249C275.061 62.3398 275.339 61.9603 275.528 61.4864C275.721 61.0124 275.817 60.4904 275.817 59.9203C275.817 59.3502 275.721 58.8266 275.528 58.3493C275.339 57.872 275.061 57.4892 274.693 57.2009C274.325 56.9125 273.876 56.7683 273.346 56.7683C272.819 56.7683 272.37 56.9125 271.999 57.2009C271.631 57.4892 271.351 57.872 271.158 58.3493C270.969 58.8266 270.875 59.3502 270.875 59.9203C270.875 60.4904 270.969 61.0124 271.158 61.4864C271.351 61.9603 271.631 62.3398 271.999 62.6249C272.366 62.9099 272.816 63.0524 273.346 63.0524ZM278.649 63.7037V56.0673H279.509V57.2406H279.589C279.741 56.8462 279.995 56.5363 280.35 56.3109C280.708 56.0823 281.137 55.9679 281.637 55.9679C282.164 55.9679 282.597 56.0922 282.935 56.3408C283.276 56.586 283.531 56.9241 283.7 57.355H283.765C283.937 56.9307 284.217 56.5943 284.605 56.3458C284.996 56.0939 285.47 55.9679 286.027 55.9679C286.736 55.9679 287.297 56.1916 287.708 56.6391C288.119 57.0832 288.324 57.7328 288.324 58.5879V63.7037H287.439V58.5879C287.439 57.9847 287.285 57.5323 286.977 57.2307C286.668 56.9291 286.262 56.7783 285.759 56.7783C285.175 56.7783 284.726 56.9573 284.411 57.3152C284.096 57.6732 283.939 58.1272 283.939 58.6774V63.7037H283.034V58.5084C283.034 57.9913 282.89 57.5737 282.602 57.2556C282.313 56.9374 281.907 56.7783 281.384 56.7783C281.032 56.7783 280.716 56.8645 280.434 57.0368C280.156 57.2091 279.935 57.4494 279.773 57.7577C279.614 58.0626 279.534 58.4139 279.534 58.8117V63.7037H278.649ZM42.321 84.7037V74.5219H44.4737V82.9288H48.8387V84.7037H42.321ZM50.2246 84.7037V77.0673H52.3425V84.7037H50.2246ZM51.2885 76.083C50.9736 76.083 50.7035 75.9786 50.4781 75.7698C50.2561 75.5576 50.145 75.3041 50.145 75.0091C50.145 74.7174 50.2561 74.4672 50.4781 74.2584C50.7035 74.0463 50.9736 73.9402 51.2885 73.9402C51.6034 73.9402 51.8718 74.0463 52.0939 74.2584C52.3193 74.4672 52.432 74.7174 52.432 75.0091C52.432 75.3041 52.3193 75.5576 52.0939 75.7698C51.8718 75.9786 51.6034 76.083 51.2885 76.083ZM56.1569 80.2889V84.7037H54.039V77.0673H56.0575V78.4146H56.147C56.316 77.9705 56.5994 77.6192 56.9971 77.3607C57.3948 77.0988 57.8771 76.9679 58.4438 76.9679C58.9742 76.9679 59.4365 77.0839 59.8309 77.3159C60.2253 77.5479 60.5319 77.8794 60.7507 78.3102C60.9694 78.7378 61.0788 79.2482 61.0788 79.8415V84.7037H58.9609V80.2193C58.9642 79.752 58.8449 79.3874 58.6029 79.1256C58.361 78.8604 58.0279 78.7279 57.6036 78.7279C57.3186 78.7279 57.0667 78.7892 56.848 78.9118C56.6325 79.0344 56.4635 79.2134 56.3409 79.4487C56.2215 79.6807 56.1602 79.9608 56.1569 80.2889ZM64.667 82.5063L64.672 79.9658H64.9802L67.4263 77.0673H69.8574L66.5712 80.9054H66.069L64.667 82.5063ZM62.748 84.7037V74.5219H64.8659V84.7037H62.748ZM67.5207 84.7037L65.2736 81.3777L66.6855 79.8813L70.0016 84.7037H67.5207ZM74.0621 84.8529C73.2766 84.8529 72.6005 84.6938 72.0337 84.3756C71.4702 84.0541 71.0361 83.6 70.7311 83.0134C70.4262 82.4234 70.2737 81.7257 70.2737 80.9203C70.2737 80.1348 70.4262 79.4454 70.7311 78.8521C71.0361 78.2589 71.4653 77.7965 72.0188 77.4651C72.5756 77.1336 73.2285 76.9679 73.9776 76.9679C74.4814 76.9679 74.9504 77.0491 75.3845 77.2115C75.822 77.3706 76.2032 77.6109 76.528 77.9324C76.8561 78.2539 77.1113 78.6583 77.2936 79.1455C77.4759 79.6294 77.5671 80.1961 77.5671 80.8458V81.4274H71.1189V80.1149H75.5735C75.5735 79.81 75.5072 79.5399 75.3746 79.3046C75.242 79.0692 75.0581 78.8853 74.8228 78.7527C74.5907 78.6168 74.3206 78.5489 74.0124 78.5489C73.6909 78.5489 73.4059 78.6234 73.1573 78.7726C72.912 78.9184 72.7198 79.1156 72.5806 79.3642C72.4414 79.6095 72.3701 79.8829 72.3668 80.1845V81.4324C72.3668 81.8102 72.4364 82.1367 72.5756 82.4118C72.7181 82.6869 72.9186 82.899 73.1772 83.0482C73.4357 83.1973 73.7423 83.2719 74.0969 83.2719C74.3322 83.2719 74.5477 83.2387 74.7432 83.1725C74.9388 83.1062 75.1061 83.0067 75.2453 82.8742C75.3845 82.7416 75.4906 82.5792 75.5635 82.3869L77.5223 82.5162C77.4229 82.9868 77.2191 83.3978 76.9108 83.7492C76.6059 84.0972 76.2115 84.369 75.7276 84.5645C75.247 84.7567 74.6918 84.8529 74.0621 84.8529ZM81.7631 84.828C81.1831 84.828 80.6577 84.6788 80.1871 84.3806C79.7198 84.0789 79.3486 83.6365 79.0735 83.0531C78.8017 82.4665 78.6658 81.7473 78.6658 80.8955C78.6658 80.0205 78.8067 79.293 79.0884 78.7129C79.3701 78.1296 79.7446 77.6938 80.212 77.4054C80.6826 77.1137 81.198 76.9679 81.7581 76.9679C82.1857 76.9679 82.542 77.0408 82.827 77.1867C83.1154 77.3292 83.3474 77.5082 83.523 77.7236C83.702 77.9357 83.8379 78.1445 83.9307 78.35H83.9953V74.5219H86.1083V84.7037H84.0202V83.4807H83.9307C83.8313 83.6928 83.6904 83.9033 83.5081 84.1121C83.3291 84.3176 83.0955 84.4883 82.8071 84.6242C82.5221 84.76 82.1741 84.828 81.7631 84.828ZM82.4343 83.1426C82.7756 83.1426 83.064 83.0498 83.2993 82.8642C83.538 82.6753 83.7202 82.4118 83.8462 82.0737C83.9755 81.7357 84.0401 81.3396 84.0401 80.8855C84.0401 80.4315 83.9771 80.037 83.8512 79.7023C83.7252 79.3675 83.5429 79.109 83.3043 78.9267C83.0657 78.7444 82.7756 78.6533 82.4343 78.6533C82.0862 78.6533 81.7929 78.7477 81.5543 78.9367C81.3157 79.1256 81.135 79.3874 81.0124 79.7222C80.8898 80.0569 80.8284 80.4447 80.8284 80.8855C80.8284 81.3297 80.8898 81.7224 81.0124 82.0638C81.1383 82.4019 81.319 82.667 81.5543 82.8592C81.7929 83.0482 82.0862 83.1426 82.4343 83.1426ZM90.042 74.5219V84.7037H87.8893V74.5219H90.042ZM93.8913 80.2889V84.7037H91.7734V77.0673H93.7919V78.4146H93.8813C94.0504 77.9705 94.3338 77.6192 94.7315 77.3607C95.1292 77.0988 95.6115 76.9679 96.1782 76.9679C96.7085 76.9679 97.1709 77.0839 97.5653 77.3159C97.9597 77.5479 98.2663 77.8794 98.485 78.3102C98.7038 78.7378 98.8132 79.2482 98.8132 79.8415V84.7037H96.6953V80.2193C96.6986 79.752 96.5793 79.3874 96.3373 79.1256C96.0954 78.8604 95.7623 78.7279 95.338 78.7279C95.053 78.7279 94.8011 78.7892 94.5823 78.9118C94.3669 79.0344 94.1979 79.2134 94.0752 79.4487C93.9559 79.6807 93.8946 79.9608 93.8913 80.2889ZM104.961 84.833C104.632 84.833 104.351 84.717 104.115 84.485C103.883 84.2496 103.767 83.9679 103.767 83.6398C103.767 83.315 103.883 83.0366 104.115 82.8046C104.351 82.5725 104.632 82.4565 104.961 82.4565C105.279 82.4565 105.557 82.5725 105.796 82.8046C106.034 83.0366 106.154 83.315 106.154 83.6398C106.154 83.8585 106.097 84.0591 105.985 84.2413C105.875 84.4203 105.731 84.5645 105.552 84.6739C105.373 84.7799 105.176 84.833 104.961 84.833ZM104.961 79.4835C104.632 79.4835 104.351 79.3675 104.115 79.1355C103.883 78.9035 103.767 78.6218 103.767 78.2904C103.767 77.9655 103.883 77.6888 104.115 77.4601C104.351 77.2281 104.632 77.1121 104.961 77.1121C105.279 77.1121 105.557 77.2281 105.796 77.4601C106.034 77.6888 106.154 77.9655 106.154 78.2904C106.154 78.5124 106.097 78.7146 105.985 78.8969C105.875 79.0759 105.731 79.2184 105.552 79.3244C105.373 79.4305 105.176 79.4835 104.961 79.4835ZM121.242 74.0446L117.961 86.235H117.131L120.412 74.0446H121.242ZM122.786 84.7037V77.0673H123.676V84.7037H122.786ZM123.239 75.7548C123.056 75.7548 122.901 75.6935 122.771 75.5709C122.642 75.4449 122.577 75.2941 122.577 75.1185C122.577 74.9428 122.642 74.7937 122.771 74.671C122.901 74.5451 123.056 74.4821 123.239 74.4821C123.421 74.4821 123.577 74.5451 123.706 74.671C123.835 74.7937 123.9 74.9428 123.9 75.1185C123.9 75.2941 123.835 75.4449 123.706 75.5709C123.577 75.6935 123.421 75.7548 123.239 75.7548ZM126.901 79.931V84.7037H126.016V77.0673H126.877V78.2655H126.956C127.135 77.8744 127.413 77.5612 127.791 77.3259C128.172 77.0872 128.643 76.9679 129.203 76.9679C129.717 76.9679 130.168 77.0756 130.556 77.2911C130.947 77.5032 131.25 77.8164 131.465 78.2307C131.684 78.645 131.793 79.1538 131.793 79.757V84.7037H130.909V79.8117C130.909 79.1852 130.733 78.6897 130.382 78.3252C130.034 77.9606 129.566 77.7783 128.98 77.7783C128.578 77.7783 128.222 77.8645 127.911 78.0368C127.599 78.2091 127.352 78.4577 127.17 78.7825C126.991 79.104 126.901 79.4868 126.901 79.931ZM137.43 74.0446L134.149 86.235H133.318L136.6 74.0446H137.43ZM138.964 84.7037V77.0673H139.824V78.2406H139.888C140.041 77.8562 140.306 77.5463 140.684 77.3109C141.065 77.0723 141.496 76.953 141.977 76.953C142.049 76.953 142.131 76.9547 142.22 76.958C142.31 76.9613 142.384 76.9646 142.444 76.9679V77.8678C142.404 77.8611 142.334 77.8512 142.235 77.8379C142.136 77.8247 142.028 77.8181 141.912 77.8181C141.514 77.8181 141.16 77.9026 140.848 78.0716C140.54 78.2373 140.296 78.4677 140.117 78.7627C139.938 79.0576 139.849 79.394 139.849 79.7719V84.7037H138.964ZM146.087 84.8777C145.626 84.8777 145.205 84.7882 144.824 84.6092C144.443 84.427 144.14 84.1651 143.914 83.8237C143.689 83.479 143.576 83.0614 143.576 82.5709C143.576 82.1931 143.647 81.8749 143.79 81.6163C143.932 81.3578 144.135 81.1457 144.396 80.98C144.658 80.8143 144.968 80.6833 145.326 80.5872C145.684 80.4911 146.078 80.4165 146.509 80.3635C146.937 80.3105 147.298 80.2641 147.593 80.2243C147.891 80.1845 148.119 80.1216 148.274 80.0354C148.43 79.9492 148.508 79.81 148.508 79.6178V79.4388C148.508 78.9184 148.352 78.5091 148.041 78.2108C147.732 77.9092 147.288 77.7584 146.708 77.7584C146.158 77.7584 145.709 77.8794 145.361 78.1213C145.016 78.3633 144.774 78.6483 144.635 78.9764L143.795 78.6732C143.967 78.2556 144.206 77.9225 144.511 77.6739C144.816 77.422 145.157 77.2413 145.535 77.132C145.913 77.0193 146.296 76.9629 146.683 76.9629C146.975 76.9629 147.278 77.0011 147.593 77.0773C147.911 77.1535 148.206 77.2861 148.478 77.475C148.75 77.6606 148.97 77.9208 149.139 78.2556C149.308 78.587 149.393 79.0079 149.393 79.5183V84.7037H148.508V83.4956H148.453C148.347 83.721 148.19 83.9397 147.981 84.1519C147.772 84.364 147.51 84.538 147.195 84.6739C146.881 84.8098 146.511 84.8777 146.087 84.8777ZM146.206 84.0673C146.677 84.0673 147.084 83.9629 147.429 83.7541C147.774 83.5453 148.039 83.2686 148.225 82.9239C148.413 82.5759 148.508 82.1931 148.508 81.7754V80.6717C148.442 80.7347 148.331 80.7911 148.175 80.8408C148.022 80.8905 147.845 80.9352 147.643 80.975C147.444 81.0115 147.245 81.043 147.046 81.0695C146.847 81.096 146.668 81.1192 146.509 81.1391C146.078 81.1921 145.711 81.275 145.406 81.3877C145.101 81.5003 144.867 81.6561 144.705 81.855C144.542 82.0505 144.461 82.3024 144.461 82.6107C144.461 83.0747 144.627 83.4343 144.958 83.6895C145.29 83.9414 145.706 84.0673 146.206 84.0673ZM156.878 78.7428L156.067 78.9715C155.988 78.7428 155.875 78.5356 155.729 78.35C155.583 78.1644 155.393 78.0169 155.157 77.9075C154.925 77.7982 154.637 77.7435 154.292 77.7435C153.775 77.7435 153.351 77.8661 153.02 78.1114C152.688 78.3566 152.523 78.6732 152.523 79.0609C152.523 79.3891 152.635 79.6559 152.861 79.8614C153.089 80.0636 153.441 80.2243 153.915 80.3436L155.068 80.627C155.708 80.7828 156.187 81.0297 156.505 81.3678C156.826 81.7058 156.987 82.1301 156.987 82.6405C156.987 83.0714 156.868 83.4542 156.629 83.7889C156.39 84.1237 156.057 84.3872 155.63 84.5794C155.206 84.7683 154.713 84.8628 154.153 84.8628C153.407 84.8628 152.793 84.6954 152.309 84.3607C151.825 84.0226 151.515 83.5354 151.379 82.899L152.229 82.6902C152.339 83.1443 152.552 83.4873 152.871 83.7193C153.192 83.9513 153.615 84.0673 154.138 84.0673C154.725 84.0673 155.194 83.9364 155.545 83.6746C155.897 83.4094 156.072 83.078 156.072 82.6803C156.072 82.372 155.969 82.1135 155.764 81.9047C155.558 81.6926 155.247 81.5368 154.829 81.4374L153.581 81.1391C152.919 80.98 152.428 80.7281 152.11 80.3834C151.792 80.0387 151.633 79.6111 151.633 79.1007C151.633 78.6798 151.747 78.3102 151.976 77.9921C152.204 77.6706 152.519 77.4187 152.92 77.2364C153.321 77.0541 153.779 76.9629 154.292 76.9629C154.992 76.9629 155.55 77.122 155.968 77.4402C156.389 77.7551 156.692 78.1893 156.878 78.7428ZM161.057 84.8777C160.597 84.8777 160.176 84.7882 159.795 84.6092C159.414 84.427 159.11 84.1651 158.885 83.8237C158.66 83.479 158.547 83.0614 158.547 82.5709C158.547 82.1931 158.618 81.8749 158.761 81.6163C158.903 81.3578 159.105 81.1457 159.367 80.98C159.629 80.8143 159.939 80.6833 160.297 80.5872C160.655 80.4911 161.049 80.4165 161.48 80.3635C161.908 80.3105 162.269 80.2641 162.564 80.2243C162.862 80.1845 163.089 80.1216 163.245 80.0354C163.401 79.9492 163.479 79.81 163.479 79.6178V79.4388C163.479 78.9184 163.323 78.5091 163.011 78.2108C162.703 77.9092 162.259 77.7584 161.679 77.7584C161.129 77.7584 160.68 77.8794 160.332 78.1213C159.987 78.3633 159.745 78.6483 159.606 78.9764L158.766 78.6732C158.938 78.2556 159.177 77.9225 159.481 77.6739C159.786 77.422 160.128 77.2413 160.506 77.132C160.883 77.0193 161.266 76.9629 161.654 76.9629C161.946 76.9629 162.249 77.0011 162.564 77.0773C162.882 77.1535 163.177 77.2861 163.449 77.475C163.721 77.6606 163.941 77.9208 164.11 78.2556C164.279 78.587 164.364 79.0079 164.364 79.5183V84.7037H163.479V83.4956H163.424C163.318 83.721 163.16 83.9397 162.952 84.1519C162.743 84.364 162.481 84.538 162.166 84.6739C161.851 84.8098 161.482 84.8777 161.057 84.8777ZM161.177 84.0673C161.647 84.0673 162.055 83.9629 162.4 83.7541C162.745 83.5453 163.01 83.2686 163.195 82.9239C163.384 82.5759 163.479 82.1931 163.479 81.7754V80.6717C163.412 80.7347 163.301 80.7911 163.146 80.8408C162.993 80.8905 162.816 80.9352 162.614 80.975C162.415 81.0115 162.216 81.043 162.017 81.0695C161.818 81.096 161.639 81.1192 161.48 81.1391C161.049 81.1921 160.681 81.275 160.376 81.3877C160.071 81.5003 159.838 81.6561 159.675 81.855C159.513 82.0505 159.432 82.3024 159.432 82.6107C159.432 83.0747 159.597 83.4343 159.929 83.6895C160.26 83.9414 160.676 84.0673 161.177 84.0673ZM169.631 87.7264C169.111 87.7264 168.655 87.6585 168.264 87.5226C167.873 87.39 167.543 87.2077 167.274 86.9757C167.006 86.7437 166.797 86.4835 166.648 86.1952L167.374 85.7179C167.483 85.9101 167.629 86.0991 167.811 86.2847C167.997 86.4703 168.237 86.6244 168.532 86.747C168.831 86.8697 169.197 86.931 169.631 86.931C170.307 86.931 170.852 86.7619 171.267 86.4239C171.684 86.0858 171.893 85.5605 171.893 84.8479V83.1277H171.814C171.711 83.3597 171.563 83.5917 171.371 83.8237C171.179 84.0524 170.927 84.243 170.615 84.3955C170.307 84.5479 169.924 84.6242 169.467 84.6242C168.857 84.6242 168.315 84.4734 167.841 84.1717C167.371 83.8701 166.999 83.4393 166.728 82.8791C166.459 82.3157 166.325 81.6445 166.325 80.8656C166.325 80.0934 166.456 79.4139 166.718 78.8273C166.983 78.2406 167.352 77.7833 167.826 77.4551C168.3 77.127 168.852 76.9629 169.482 76.9629C169.949 76.9629 170.337 77.0458 170.645 77.2115C170.953 77.3739 171.2 77.5761 171.386 77.8181C171.575 78.06 171.722 78.2953 171.828 78.524H171.918V77.0673H172.783V84.9026C172.783 85.5489 172.645 86.0808 172.37 86.4984C172.095 86.9161 171.721 87.2243 171.247 87.4232C170.773 87.6253 170.234 87.7264 169.631 87.7264ZM169.571 83.8138C170.062 83.8138 170.481 83.6961 170.829 83.4608C171.177 83.2222 171.444 82.8808 171.63 82.4367C171.815 81.9925 171.908 81.4639 171.908 80.8507C171.908 80.2541 171.817 79.7255 171.635 79.2648C171.452 78.8008 171.187 78.4362 170.839 78.171C170.494 77.9026 170.072 77.7683 169.571 77.7683C169.061 77.7683 168.63 77.9059 168.279 78.181C167.927 78.4561 167.662 78.8273 167.483 79.2946C167.304 79.7586 167.215 80.2773 167.215 80.8507C167.215 81.4341 167.306 81.9494 167.488 82.3969C167.671 82.841 167.937 83.189 168.289 83.4409C168.64 83.6895 169.068 83.8138 169.571 83.8138ZM179.978 81.7854V77.0673H180.863V84.7037H179.978V83.4359H179.909C179.73 83.827 179.446 84.1535 179.058 84.4154C178.671 84.6739 178.197 84.8031 177.636 84.8031C177.149 84.8031 176.717 84.6971 176.339 84.485C175.961 84.2695 175.664 83.9547 175.449 83.5404C175.234 83.1261 175.126 82.6173 175.126 82.0141V77.0673H176.011V81.9594C176.011 82.556 176.186 83.0366 176.538 83.4011C176.889 83.7624 177.34 83.9431 177.89 83.9431C178.235 83.9431 178.566 83.8602 178.884 83.6945C179.203 83.5288 179.464 83.2868 179.67 82.9686C179.875 82.6471 179.978 82.2527 179.978 81.7854ZM188.337 78.7428L187.526 78.9715C187.447 78.7428 187.334 78.5356 187.188 78.35C187.042 78.1644 186.852 78.0169 186.616 77.9075C186.384 77.7982 186.096 77.7435 185.751 77.7435C185.234 77.7435 184.81 77.8661 184.479 78.1114C184.147 78.3566 183.981 78.6732 183.981 79.0609C183.981 79.3891 184.094 79.6559 184.32 79.8614C184.548 80.0636 184.9 80.2243 185.374 80.3436L186.527 80.627C187.167 80.7828 187.646 81.0297 187.964 81.3678C188.285 81.7058 188.446 82.1301 188.446 82.6405C188.446 83.0714 188.327 83.4542 188.088 83.7889C187.849 84.1237 187.516 84.3872 187.089 84.5794C186.664 84.7683 186.172 84.8628 185.612 84.8628C184.866 84.8628 184.252 84.6954 183.768 84.3607C183.284 84.0226 182.974 83.5354 182.838 82.899L183.688 82.6902C183.798 83.1443 184.011 83.4873 184.33 83.7193C184.651 83.9513 185.074 84.0673 185.597 84.0673C186.184 84.0673 186.653 83.9364 187.004 83.6746C187.356 83.4094 187.531 83.078 187.531 82.6803C187.531 82.372 187.428 82.1135 187.223 81.9047C187.017 81.6926 186.706 81.5368 186.288 81.4374L185.04 81.1391C184.378 80.98 183.887 80.7281 183.569 80.3834C183.251 80.0387 183.092 79.6111 183.092 79.1007C183.092 78.6798 183.206 78.3102 183.435 77.9921C183.663 77.6706 183.978 77.4187 184.379 77.2364C184.78 77.0541 185.238 76.9629 185.751 76.9629C186.451 76.9629 187.009 77.122 187.427 77.4402C187.848 77.7551 188.151 78.1893 188.337 78.7428ZM193.391 77.0673V77.8379H189.747V77.0673H193.391ZM190.886 75.2378H191.776V82.7101C191.776 83.0283 191.83 83.2785 191.94 83.4608C192.049 83.6398 192.192 83.7674 192.367 83.8436C192.543 83.9165 192.73 83.953 192.929 83.953C193.045 83.953 193.145 83.9464 193.227 83.9331C193.31 83.9165 193.383 83.9 193.446 83.8834L193.635 84.6838C193.549 84.717 193.443 84.7468 193.317 84.7733C193.191 84.8031 193.035 84.8181 192.85 84.8181C192.525 84.8181 192.212 84.7468 191.91 84.6043C191.612 84.4618 191.366 84.2496 191.174 83.9679C190.982 83.6862 190.886 83.3365 190.886 82.9189V75.2378ZM195.411 84.7037V77.0673H196.301V84.7037H195.411ZM195.864 75.7548C195.681 75.7548 195.526 75.6935 195.396 75.5709C195.267 75.4449 195.202 75.2941 195.202 75.1185C195.202 74.9428 195.267 74.7937 195.396 74.671C195.526 74.5451 195.681 74.4821 195.864 74.4821C196.046 74.4821 196.202 74.5451 196.331 74.671C196.46 74.7937 196.525 74.9428 196.525 75.1185C196.525 75.2941 196.46 75.4449 196.331 75.5709C196.202 75.6935 196.046 75.7548 195.864 75.7548ZM199.526 79.931V84.7037H198.641V77.0673H199.502V78.2655H199.581C199.76 77.8744 200.038 77.5612 200.416 77.3259C200.797 77.0872 201.268 76.9679 201.828 76.9679C202.342 76.9679 202.793 77.0756 203.181 77.2911C203.572 77.5032 203.875 77.8164 204.09 78.2307C204.309 78.645 204.418 79.1538 204.418 79.757V84.7037H203.534V79.8117C203.534 79.1852 203.358 78.6897 203.007 78.3252C202.659 77.9606 202.191 77.7783 201.605 77.7783C201.203 77.7783 200.847 77.8645 200.536 78.0368C200.224 78.2091 199.977 78.4577 199.795 78.7825C199.616 79.104 199.526 79.4868 199.526 79.931ZM210.055 74.0446L206.774 86.235H205.943L209.225 74.0446H210.055ZM216.808 83.3117L216.753 83.8585C216.71 84.296 216.627 84.7319 216.504 85.1661C216.385 85.6036 216.259 85.9996 216.127 86.3543C215.997 86.7089 215.893 86.9873 215.813 87.1895H214.441C214.491 86.994 214.559 86.7205 214.645 86.3692C214.731 86.0212 214.812 85.6301 214.889 85.1959C214.965 84.7617 215.013 84.3192 215.033 83.8685L215.058 83.3117H216.808Z" fill="white"/>
</svg>
