<svg width="281" height="104" viewBox="0 0 281 104" fill="none" xmlns="http://www.w3.org/2000/svg">
<path d="M2.66335 6.45455V21H1.79688V6.45455H2.66335ZM10.5043 21.2273C9.51941 21.2273 8.66241 20.9834 7.93324 20.4957C7.20407 20.008 6.64063 19.3404 6.2429 18.4929C5.84517 17.6454 5.64631 16.6795 5.64631 15.5952C5.64631 14.5062 5.84517 13.5355 6.2429 12.6832C6.64536 11.831 7.19697 11.1586 7.89773 10.6662C8.59848 10.1738 9.39867 9.92756 10.2983 9.92756C10.9091 9.92756 11.4867 10.0507 12.0312 10.2969C12.5805 10.5384 13.0634 10.8887 13.4801 11.348C13.9015 11.8073 14.2306 12.3613 14.4673 13.0099C14.7088 13.6586 14.8295 14.3878 14.8295 15.1974V15.7372H6.19318V14.9489H13.9631C13.9631 14.1581 13.8021 13.4455 13.4801 12.8111C13.1581 12.1766 12.7202 11.6723 12.1662 11.2983C11.6122 10.9242 10.9896 10.7372 10.2983 10.7372C9.57386 10.7372 8.92756 10.9408 8.35938 11.348C7.79593 11.7505 7.34848 12.295 7.01705 12.9815C6.69034 13.6681 6.51989 14.4351 6.50568 15.2827V15.6378C6.50568 16.5469 6.6643 17.3636 6.98153 18.0881C7.3035 18.8078 7.76278 19.3783 8.35938 19.7997C8.95597 20.2164 9.67093 20.4247 10.5043 20.4247C11.1009 20.4247 11.6098 20.3253 12.0312 20.1264C12.4574 19.9228 12.8054 19.6766 13.0753 19.3878C13.3452 19.099 13.5488 18.8196 13.6861 18.5497L14.4744 18.8693C14.3087 19.2339 14.0507 19.5985 13.7003 19.9631C13.3546 20.3229 12.9143 20.6236 12.3793 20.8651C11.849 21.1065 11.224 21.2273 10.5043 21.2273ZM21.669 10.0909V10.8651H16.9034V10.0909H21.669ZM18.5156 7.47727H19.375V18.4219C19.375 18.867 19.4602 19.2315 19.6307 19.5156C19.8059 19.795 20.0331 20.0033 20.3125 20.1406C20.5966 20.2732 20.8996 20.3395 21.2216 20.3395C21.3778 20.3395 21.5128 20.3277 21.6264 20.304C21.7448 20.2803 21.8561 20.2495 21.9602 20.2116L22.1733 21C22.0407 21.0473 21.8939 21.0876 21.733 21.1207C21.572 21.1586 21.3826 21.1776 21.1648 21.1776C20.7102 21.1776 20.2794 21.0758 19.8722 20.8722C19.4697 20.6686 19.143 20.3726 18.892 19.9844C18.6411 19.5961 18.5156 19.1274 18.5156 18.5781V7.47727ZM35.9567 6.45455V21H32.4837V6.45455H35.9567ZM47.2596 21.206C46.1138 21.206 45.1289 20.9716 44.305 20.5028C43.4859 20.0294 42.8538 19.3712 42.4087 18.5284C41.9684 17.6809 41.7482 16.6984 41.7482 15.581C41.7482 14.4588 41.9684 13.4763 42.4087 12.6335C42.8538 11.786 43.4859 11.1278 44.305 10.6591C45.1289 10.1856 46.1138 9.94886 47.2596 9.94886C48.4054 9.94886 49.3879 10.1856 50.207 10.6591C51.0309 11.1278 51.663 11.786 52.1033 12.6335C52.5484 13.4763 52.771 14.4588 52.771 15.581C52.771 16.6984 52.5484 17.6809 52.1033 18.5284C51.663 19.3712 51.0309 20.0294 50.207 20.5028C49.3879 20.9716 48.4054 21.206 47.2596 21.206ZM47.2809 18.5852C47.6976 18.5852 48.0503 18.4574 48.3391 18.2017C48.628 17.946 48.8481 17.5909 48.9996 17.1364C49.1559 16.6818 49.234 16.1562 49.234 15.5597C49.234 14.9536 49.1559 14.4233 48.9996 13.9688C48.8481 13.5142 48.628 13.1591 48.3391 12.9034C48.0503 12.6477 47.6976 12.5199 47.2809 12.5199C46.85 12.5199 46.4854 12.6477 46.1871 12.9034C45.8936 13.1591 45.6687 13.5142 45.5124 13.9688C45.3609 14.4233 45.2852 14.9536 45.2852 15.5597C45.2852 16.1562 45.3609 16.6818 45.5124 17.1364C45.6687 17.5909 45.8936 17.946 46.1871 18.2017C46.4854 18.4574 46.85 18.5852 47.2809 18.5852ZM63.6424 21.206C62.4918 21.206 61.5046 20.9692 60.6808 20.4957C59.8616 20.0223 59.2319 19.3641 58.7915 18.5213C58.3512 17.6738 58.131 16.6937 58.131 15.581C58.131 14.4635 58.3512 13.4834 58.7915 12.6406C59.2366 11.7931 59.8687 11.1326 60.6879 10.6591C61.5117 10.1856 62.4942 9.94886 63.6353 9.94886C64.6438 9.94886 65.5221 10.1312 66.2702 10.4957C67.0231 10.8603 67.6102 11.3764 68.0316 12.044C68.4577 12.7069 68.6826 13.4858 68.7063 14.3807H65.4606C65.3943 13.822 65.2049 13.384 64.8924 13.0668C64.5846 12.7495 64.1822 12.5909 63.685 12.5909C63.2826 12.5909 62.9298 12.7045 62.6268 12.9318C62.3237 13.1544 62.087 13.4858 61.9165 13.9261C61.7508 14.3617 61.668 14.9015 61.668 15.5455C61.668 16.1894 61.7508 16.7339 61.9165 17.179C62.087 17.6193 62.3237 17.9531 62.6268 18.1804C62.9298 18.4029 63.2826 18.5142 63.685 18.5142C64.007 18.5142 64.2911 18.4455 64.5373 18.3082C64.7882 18.1709 64.9942 17.9697 65.1552 17.7045C65.3162 17.4347 65.418 17.108 65.4606 16.7244H68.7063C68.6732 17.6241 68.4483 18.41 68.0316 19.0824C67.6197 19.7547 67.0397 20.2779 66.2915 20.652C65.5482 21.0213 64.6651 21.206 63.6424 21.206ZM77.5589 21.1847C76.8629 21.1847 76.245 21.0687 75.7053 20.8366C75.1702 20.5999 74.7464 20.2448 74.4339 19.7713C74.1262 19.2931 73.9723 18.6941 73.9723 17.9744C73.9723 17.3684 74.0788 16.857 74.2919 16.4403C74.505 16.0237 74.7985 15.6851 75.1726 15.4247C75.5466 15.1643 75.9775 14.9678 76.4652 14.8352C76.9529 14.6979 77.4737 14.6056 78.0277 14.5582C78.648 14.5014 79.1475 14.4422 79.5263 14.3807C79.9051 14.3144 80.1797 14.2221 80.3501 14.1037C80.5253 13.9806 80.6129 13.8078 80.6129 13.5852V13.5497C80.6129 13.1851 80.4875 12.9034 80.2365 12.7045C79.9856 12.5057 79.647 12.4062 79.2209 12.4062C78.7616 12.4062 78.3923 12.5057 78.1129 12.7045C77.8336 12.9034 77.656 13.178 77.5803 13.5284L74.3771 13.4148C74.4718 12.7519 74.7157 12.16 75.1087 11.6392C75.5064 11.1136 76.0509 10.7017 76.7422 10.4034C77.4382 10.1004 78.2739 9.94886 79.2493 9.94886C79.9453 9.94886 80.5869 10.0317 81.174 10.1974C81.7611 10.3584 82.2725 10.5952 82.7081 10.9077C83.1437 11.2154 83.4799 11.5942 83.7166 12.044C83.9581 12.4938 84.0788 13.0076 84.0788 13.5852V21H80.8118V19.4801H80.7266C80.5324 19.8494 80.2839 20.1619 79.9808 20.4176C79.6825 20.6733 79.3298 20.8651 78.9226 20.9929C78.5201 21.1207 78.0656 21.1847 77.5589 21.1847ZM78.6314 18.9119C79.0054 18.9119 79.3416 18.8362 79.6399 18.6847C79.9429 18.5331 80.1844 18.3248 80.3643 18.0597C80.5443 17.7898 80.6342 17.4773 80.6342 17.1222V16.0852C80.5348 16.1373 80.4141 16.1847 80.272 16.2273C80.1347 16.2699 79.9832 16.3101 79.8175 16.348C79.6518 16.3859 79.4813 16.419 79.3061 16.4474C79.1309 16.4759 78.9628 16.5019 78.8018 16.5256C78.4751 16.5777 78.1958 16.6581 77.9638 16.767C77.7365 16.8759 77.5613 17.018 77.4382 17.1932C77.3198 17.3636 77.2607 17.5672 77.2607 17.804C77.2607 18.1638 77.3885 18.4384 77.6442 18.6278C77.9046 18.8172 78.2337 18.9119 78.6314 18.9119ZM96.3601 10.0909V12.6477H89.478V10.0909H96.3601ZM90.9197 7.47727H94.3928V17.5696C94.3928 17.7827 94.4259 17.9555 94.4922 18.0881C94.5632 18.2159 94.665 18.3082 94.7976 18.3651C94.9302 18.4171 95.0888 18.4432 95.2734 18.4432C95.406 18.4432 95.5457 18.4313 95.6925 18.4077C95.844 18.3793 95.9576 18.3556 96.0334 18.3366L96.5589 20.8438C96.3932 20.8911 96.1589 20.9503 95.8558 21.0213C95.5575 21.0923 95.2 21.1373 94.7834 21.1562C93.969 21.1941 93.2706 21.0994 92.6882 20.8722C92.1106 20.6402 91.6679 20.2803 91.3601 19.7926C91.0571 19.3049 90.9103 18.6918 90.9197 17.9531V7.47727ZM102.132 21V10.0909H105.605V21H102.132ZM103.872 8.8196C103.384 8.8196 102.965 8.65862 102.615 8.33665C102.265 8.00994 102.089 7.61695 102.089 7.15767C102.089 6.70312 102.265 6.31487 102.615 5.9929C102.965 5.66619 103.384 5.50284 103.872 5.50284C104.365 5.50284 104.784 5.66619 105.129 5.9929C105.48 6.31487 105.655 6.70312 105.655 7.15767C105.655 7.61695 105.48 8.00994 105.129 8.33665C104.784 8.65862 104.365 8.8196 103.872 8.8196ZM116.908 21.206C115.762 21.206 114.777 20.9716 113.953 20.5028C113.134 20.0294 112.502 19.3712 112.057 18.5284C111.617 17.6809 111.397 16.6984 111.397 15.581C111.397 14.4588 111.617 13.4763 112.057 12.6335C112.502 11.786 113.134 11.1278 113.953 10.6591C114.777 10.1856 115.762 9.94886 116.908 9.94886C118.054 9.94886 119.036 10.1856 119.855 10.6591C120.679 11.1278 121.311 11.786 121.752 12.6335C122.197 13.4763 122.419 14.4588 122.419 15.581C122.419 16.6984 122.197 17.6809 121.752 18.5284C121.311 19.3712 120.679 20.0294 119.855 20.5028C119.036 20.9716 118.054 21.206 116.908 21.206ZM116.929 18.5852C117.346 18.5852 117.699 18.4574 117.988 18.2017C118.276 17.946 118.497 17.5909 118.648 17.1364C118.804 16.6818 118.882 16.1562 118.882 15.5597C118.882 14.9536 118.804 14.4233 118.648 13.9688C118.497 13.5142 118.276 13.1591 117.988 12.9034C117.699 12.6477 117.346 12.5199 116.929 12.5199C116.498 12.5199 116.134 12.6477 115.836 12.9034C115.542 13.1591 115.317 13.5142 115.161 13.9688C115.009 14.4233 114.934 14.9536 114.934 15.5597C114.934 16.1562 115.009 16.6818 115.161 17.1364C115.317 17.5909 115.542 17.946 115.836 18.2017C116.134 18.4574 116.498 18.5852 116.929 18.5852ZM131.672 14.7784V21H128.199V10.0909H131.501V12.0938H131.622C131.863 11.4261 132.275 10.9029 132.858 10.5241C133.44 10.1406 134.134 9.94886 134.939 9.94886C135.706 9.94886 136.371 10.1217 136.934 10.4673C137.502 10.8082 137.943 11.2865 138.255 11.902C138.573 12.5128 138.729 13.2277 138.724 14.0469V21H135.251V14.7287C135.256 14.1226 135.102 13.6491 134.789 13.3082C134.482 12.9673 134.053 12.7969 133.504 12.7969C133.139 12.7969 132.817 12.8774 132.538 13.0384C132.263 13.1946 132.05 13.4195 131.899 13.7131C131.752 14.0066 131.676 14.3617 131.672 14.7784ZM154.698 13.46V12.48H164.098V13.46H154.698ZM154.698 17.28V16.3H164.098V17.28H154.698ZM171.371 23.76V5.8H174.331V6.7H172.371V22.86H174.331V23.76H171.371ZM4.24 83.8V101.76H1.28V100.86H3.24V84.7H1.28V83.8H4.24Z" fill="white"/>
<path d="M82.9968 41.5385V39.9191C82.9968 39.4693 83.0844 39.0148 83.2595 38.5555C83.4395 38.0915 83.6715 37.6606 83.9556 37.2629C84.2444 36.8604 84.5427 36.529 84.8505 36.2686L86.3277 37.0782C86.072 37.4949 85.8684 37.9305 85.7169 38.385C85.5654 38.8349 85.492 39.3439 85.4968 39.912V41.5385H82.9968ZM86.5621 41.5385V39.9191C86.5621 39.4693 86.6497 39.0148 86.8249 38.5555C87.0048 38.0915 87.2368 37.6606 87.5209 37.2629C87.8097 36.8604 88.108 36.529 88.4158 36.2686L89.8931 37.0782C89.6374 37.4949 89.4338 37.9305 89.2823 38.385C89.1308 38.8349 89.0574 39.3439 89.0621 39.912V41.5385H86.5621ZM96.4889 51.5385V36.993H101.397C102.344 36.993 103.132 37.1587 103.762 37.4902C104.396 37.8216 104.872 38.2738 105.189 38.8467C105.506 39.4196 105.665 40.0707 105.665 40.7998C105.665 41.4059 105.563 41.9243 105.36 42.3552C105.156 42.7861 104.879 43.1341 104.529 43.3993C104.178 43.6644 103.788 43.8562 103.357 43.9745V44.0882C103.826 44.1213 104.28 44.287 104.72 44.5853C105.161 44.8789 105.523 45.2908 105.807 45.8211C106.091 46.3514 106.233 46.9859 106.233 47.7245C106.233 48.4584 106.07 49.1142 105.743 49.6919C105.417 50.2648 104.915 50.717 104.238 51.0484C103.565 51.3751 102.708 51.5385 101.667 51.5385H96.4889ZM97.8171 50.3453H101.667C102.789 50.3453 103.617 50.0967 104.152 49.5995C104.692 49.1024 104.962 48.4774 104.962 47.7245C104.962 47.1706 104.827 46.6687 104.557 46.2189C104.292 45.7643 103.916 45.4045 103.428 45.1393C102.945 44.8742 102.377 44.7416 101.723 44.7416H97.8171V50.3453ZM97.8171 43.5626H101.517C102.09 43.5626 102.592 43.4442 103.023 43.2075C103.454 42.9708 103.79 42.644 104.032 42.2274C104.273 41.8107 104.394 41.3349 104.394 40.7998C104.394 40.028 104.143 39.4007 103.641 38.9177C103.139 38.43 102.391 38.1862 101.397 38.1862H97.8171V43.5626ZM120.107 47.3694V40.6294H121.371V51.5385H120.107V49.7274H120.008C119.752 50.2861 119.347 50.7525 118.793 51.1265C118.239 51.4958 117.562 51.6805 116.762 51.6805C116.066 51.6805 115.448 51.529 114.908 51.226C114.369 50.9182 113.945 50.4684 113.637 49.8765C113.329 49.2847 113.175 48.5579 113.175 47.6961V40.6294H114.44V47.618C114.44 48.4703 114.691 49.1568 115.192 49.6777C115.694 50.1938 116.338 50.4518 117.124 50.4518C117.617 50.4518 118.09 50.3334 118.545 50.0967C118.999 49.86 119.373 49.5143 119.667 49.0598C119.96 48.6005 120.107 48.037 120.107 47.3694ZM133.129 51.7657C132.111 51.7657 131.23 51.529 130.487 51.0555C129.743 50.5773 129.168 49.9168 128.761 49.074C128.359 48.2264 128.157 47.2511 128.157 46.1478C128.157 45.0493 128.359 44.074 128.761 43.2217C129.168 42.3647 129.729 41.6947 130.444 41.2118C131.164 40.7241 131.995 40.4802 132.937 40.4802C133.529 40.4802 134.1 40.5891 134.649 40.8069C135.198 41.02 135.69 41.3491 136.126 41.7941C136.566 42.2345 136.914 42.7908 137.17 43.4632C137.426 44.1308 137.554 44.9215 137.554 45.8353V46.4603H129.031V45.3453H136.261C136.261 44.6445 136.119 44.0148 135.835 43.4561C135.555 42.8926 135.165 42.4476 134.663 42.1208C134.166 41.7941 133.591 41.6308 132.937 41.6308C132.246 41.6308 131.637 41.8154 131.112 42.1848C130.586 42.5541 130.174 43.0418 129.876 43.6478C129.582 44.2539 129.433 44.9168 129.429 45.6365V46.3041C129.429 47.1706 129.578 47.9281 129.876 48.5768C130.179 49.2208 130.608 49.7203 131.162 50.0754C131.716 50.4305 132.371 50.6081 133.129 50.6081C133.645 50.6081 134.097 50.5276 134.485 50.3666C134.878 50.2056 135.207 49.9902 135.473 49.7203C135.742 49.4457 135.946 49.145 136.083 48.8183L137.284 49.2089C137.118 49.6682 136.846 50.092 136.467 50.4802C136.093 50.8685 135.624 51.181 135.061 51.4177C134.502 51.6497 133.858 51.7657 133.129 51.7657ZM145.604 44.7203V51.5385H144.339V40.6294H145.568V42.341H145.682C145.937 41.7823 146.335 41.3349 146.875 40.9987C147.419 40.6578 148.092 40.4873 148.892 40.4873C149.626 40.4873 150.27 40.6412 150.824 40.949C151.383 41.252 151.816 41.6994 152.124 42.2913C152.436 42.8832 152.592 43.61 152.592 44.4717V51.5385H151.328V44.5498C151.328 43.6549 151.077 42.9471 150.575 42.4262C150.078 41.9054 149.41 41.645 148.572 41.645C147.999 41.645 147.49 41.7681 147.045 42.0143C146.6 42.2605 146.248 42.6156 145.987 43.0797C145.731 43.5389 145.604 44.0858 145.604 44.7203ZM164.162 51.7657C163.219 51.7657 162.386 51.5266 161.662 51.0484C160.942 50.5702 160.378 49.9097 159.971 49.0669C159.564 48.2193 159.36 47.2416 159.36 46.1336C159.36 45.0162 159.564 44.0337 159.971 43.1862C160.378 42.3339 160.942 41.671 161.662 41.1975C162.386 40.7193 163.219 40.4802 164.162 40.4802C165.104 40.4802 165.935 40.7193 166.654 41.1975C167.374 41.6758 167.938 42.3386 168.345 43.1862C168.757 44.0337 168.963 45.0162 168.963 46.1336C168.963 47.2416 168.759 48.2193 168.352 49.0669C167.945 49.9097 167.379 50.5702 166.654 51.0484C165.935 51.5266 165.104 51.7657 164.162 51.7657ZM164.162 50.6081C164.919 50.6081 165.561 50.4045 166.086 49.9973C166.612 49.5901 167.01 49.0479 167.279 48.3708C167.554 47.6938 167.691 46.948 167.691 46.1336C167.691 45.3192 167.554 44.5711 167.279 43.8893C167.01 43.2075 166.612 42.6606 166.086 42.2487C165.561 41.8368 164.919 41.6308 164.162 41.6308C163.409 41.6308 162.767 41.8368 162.237 42.2487C161.711 42.6606 161.311 43.2075 161.037 43.8893C160.767 44.5711 160.632 45.3192 160.632 46.1336C160.632 46.948 160.767 47.6938 161.037 48.3708C161.311 49.0479 161.711 49.5901 162.237 49.9973C162.762 50.4045 163.404 50.6081 164.162 50.6081ZM183.067 43.0228L181.91 43.3495C181.796 43.0228 181.635 42.7269 181.427 42.4618C181.218 42.1966 180.946 41.9859 180.61 41.8297C180.279 41.6734 179.867 41.5953 179.374 41.5953C178.636 41.5953 178.03 41.7705 177.556 42.1208C177.083 42.4712 176.846 42.9234 176.846 43.4774C176.846 43.9461 177.007 44.3273 177.329 44.6208C177.655 44.9097 178.157 45.1393 178.834 45.3098L180.482 45.7146C181.396 45.9371 182.08 46.2899 182.535 46.7728C182.994 47.2558 183.224 47.8618 183.224 48.591C183.224 49.2065 183.053 49.7534 182.712 50.2316C182.371 50.7099 181.896 51.0863 181.285 51.3609C180.679 51.6308 179.976 51.7657 179.175 51.7657C178.11 51.7657 177.232 51.5266 176.54 51.0484C175.849 50.5654 175.406 49.8694 175.212 48.9603L176.427 48.662C176.583 49.3107 176.888 49.8008 177.343 50.1322C177.802 50.4636 178.406 50.6294 179.154 50.6294C179.992 50.6294 180.662 50.4423 181.164 50.0683C181.666 49.6895 181.917 49.216 181.917 48.6478C181.917 48.2075 181.77 47.8382 181.477 47.5399C181.183 47.2368 180.738 47.0143 180.141 46.8723L178.359 46.4461C177.412 46.2189 176.711 45.859 176.256 45.3666C175.802 44.8742 175.575 44.2634 175.575 43.5342C175.575 42.9329 175.738 42.4049 176.065 41.9504C176.391 41.4911 176.841 41.1313 177.414 40.8708C177.987 40.6104 178.64 40.4802 179.374 40.4802C180.373 40.4802 181.171 40.7075 181.768 41.162C182.369 41.6118 182.802 42.2321 183.067 43.0228ZM199.901 51.5385H198.509L203.8 36.993H205.22L210.512 51.5385H209.12L204.56 38.7189H204.461L199.901 51.5385ZM200.902 45.9632H208.118V47.1564H200.902V45.9632ZM216.873 51.5385V40.6294H218.144V51.5385H216.873ZM217.519 38.7544C217.259 38.7544 217.037 38.6668 216.852 38.4916C216.667 38.3117 216.575 38.0962 216.575 37.8453C216.575 37.5943 216.667 37.3813 216.852 37.2061C217.037 37.0261 217.259 36.9362 217.519 36.9362C217.78 36.9362 218.002 37.0261 218.187 37.2061C218.372 37.3813 218.464 37.5943 218.464 37.8453C218.464 38.0962 218.372 38.3117 218.187 38.4916C218.002 38.6668 217.78 38.7544 217.519 38.7544ZM225.488 51.5385V40.6294H226.717V42.3055H226.809C227.027 41.7563 227.405 41.3136 227.945 40.9774C228.49 40.6365 229.105 40.466 229.792 40.466C229.896 40.466 230.012 40.4684 230.14 40.4731C230.268 40.4779 230.374 40.4826 230.459 40.4873V41.7728C230.403 41.7634 230.303 41.7492 230.161 41.7302C230.019 41.7113 229.865 41.7018 229.7 41.7018C229.131 41.7018 228.625 41.8226 228.18 42.064C227.739 42.3008 227.391 42.6298 227.136 43.0512C226.88 43.4726 226.752 43.9532 226.752 44.493V51.5385H225.488ZM240.695 51.7657C239.677 51.7657 238.797 51.529 238.053 51.0555C237.31 50.5773 236.735 49.9168 236.327 49.074C235.925 48.2264 235.724 47.2511 235.724 46.1478C235.724 45.0493 235.925 44.074 236.327 43.2217C236.735 42.3647 237.296 41.6947 238.011 41.2118C238.73 40.7241 239.561 40.4802 240.504 40.4802C241.095 40.4802 241.666 40.5891 242.215 40.8069C242.764 41.02 243.257 41.3491 243.692 41.7941C244.133 42.2345 244.481 42.7908 244.736 43.4632C244.992 44.1308 245.12 44.9215 245.12 45.8353V46.4603H236.597V45.3453H243.827C243.827 44.6445 243.685 44.0148 243.401 43.4561C243.122 42.8926 242.731 42.4476 242.229 42.1208C241.732 41.7941 241.157 41.6308 240.504 41.6308C239.812 41.6308 239.204 41.8154 238.678 42.1848C238.153 42.5541 237.741 43.0418 237.442 43.6478C237.149 44.2539 237 44.9168 236.995 45.6365V46.3041C236.995 47.1706 237.144 47.9281 237.442 48.5768C237.745 49.2208 238.174 49.7203 238.728 50.0754C239.282 50.4305 239.938 50.6081 240.695 50.6081C241.211 50.6081 241.664 50.5276 242.052 50.3666C242.445 50.2056 242.774 49.9902 243.039 49.7203C243.309 49.4457 243.513 49.145 243.65 48.8183L244.85 49.2089C244.684 49.6682 244.412 50.092 244.033 50.4802C243.659 50.8685 243.191 51.181 242.627 51.4177C242.068 51.6497 241.424 51.7657 240.695 51.7657ZM259.235 43.0228L258.078 43.3495C257.964 43.0228 257.803 42.7269 257.595 42.4618C257.386 42.1966 257.114 41.9859 256.778 41.8297C256.447 41.6734 256.035 41.5953 255.542 41.5953C254.804 41.5953 254.198 41.7705 253.724 42.1208C253.251 42.4712 253.014 42.9234 253.014 43.4774C253.014 43.9461 253.175 44.3273 253.497 44.6208C253.823 44.9097 254.325 45.1393 255.002 45.3098L256.65 45.7146C257.564 45.9371 258.248 46.2899 258.703 46.7728C259.162 47.2558 259.392 47.8618 259.392 48.591C259.392 49.2065 259.221 49.7534 258.88 50.2316C258.539 50.7099 258.064 51.0863 257.453 51.3609C256.847 51.6308 256.144 51.7657 255.343 51.7657C254.278 51.7657 253.4 51.5266 252.708 51.0484C252.017 50.5654 251.574 49.8694 251.38 48.9603L252.595 48.662C252.751 49.3107 253.056 49.8008 253.511 50.1322C253.97 50.4636 254.574 50.6294 255.322 50.6294C256.16 50.6294 256.83 50.4423 257.332 50.0683C257.834 49.6895 258.085 49.216 258.085 48.6478C258.085 48.2075 257.938 47.8382 257.644 47.5399C257.351 47.2368 256.906 47.0143 256.309 46.8723L254.527 46.4461C253.58 46.2189 252.879 45.859 252.424 45.3666C251.97 44.8742 251.742 44.2634 251.742 43.5342C251.742 42.9329 251.906 42.4049 252.233 41.9504C252.559 41.4911 253.009 41.1313 253.582 40.8708C254.155 40.6104 254.808 40.4802 255.542 40.4802C256.541 40.4802 257.339 40.7075 257.936 41.162C258.537 41.6118 258.97 42.2321 259.235 43.0228ZM268.482 36.993V38.6123C268.482 39.0621 268.392 39.5167 268.212 39.976C268.037 40.4305 267.807 40.8566 267.523 41.2544C267.239 41.6521 266.939 41.9883 266.621 42.2629L265.144 41.4532C265.362 41.0934 265.556 40.6886 265.727 40.2387C265.897 39.7842 265.982 39.2444 265.982 38.6194V36.993H268.482ZM272.026 36.993V38.6123C272.026 39.0621 271.936 39.5167 271.756 39.976C271.581 40.4305 271.352 40.8566 271.067 41.2544C270.783 41.6521 270.483 41.9883 270.165 42.2629L268.688 41.4532C268.906 41.0934 269.1 40.6886 269.271 40.2387C269.441 39.7842 269.526 39.2444 269.526 38.6194V36.993H272.026ZM278.917 49.5498L278.853 50.3382C278.796 50.9916 278.68 51.6284 278.505 52.2487C278.334 52.8737 278.152 53.4348 277.958 53.9319C277.764 54.4291 277.61 54.815 277.496 55.0896H275.309C275.385 54.815 275.486 54.4291 275.614 53.9319C275.747 53.4348 275.87 52.8737 275.984 52.2487C276.097 51.6237 276.161 50.9892 276.175 50.3453L276.19 49.5498H278.917ZM91.2936 65.5385V63.9191C91.2936 63.4693 91.3812 63.0148 91.5564 62.5555C91.7363 62.0915 91.9684 61.6606 92.2524 61.2629C92.5413 60.8604 92.8396 60.529 93.1473 60.2686L94.6246 61.0782C94.3689 61.4949 94.1653 61.9305 94.0138 62.385C93.8623 62.8349 93.7889 63.3439 93.7936 63.912V65.5385H91.2936ZM94.859 65.5385V63.9191C94.859 63.4693 94.9466 63.0148 95.1218 62.5555C95.3017 62.0915 95.5337 61.6606 95.8178 61.2629C96.1066 60.8604 96.4049 60.529 96.7127 60.2686L98.1899 61.0782C97.9343 61.4949 97.7307 61.9305 97.5791 62.385C97.4276 62.8349 97.3542 63.3439 97.359 63.912V65.5385H94.859ZM104.807 75.5385H103.415L108.706 60.993H110.127L115.418 75.5385H114.026L109.466 62.7189H109.367L104.807 75.5385ZM105.809 69.9632H113.024V71.1564H105.809V69.9632ZM121.648 75.5385V64.6294H122.877V66.3055H122.969C123.187 65.7563 123.566 65.3136 124.105 64.9774C124.65 64.6365 125.265 64.466 125.952 64.466C126.056 64.466 126.172 64.4684 126.3 64.4731C126.428 64.4779 126.534 64.4826 126.62 64.4873V65.7728C126.563 65.7634 126.463 65.7492 126.321 65.7302C126.179 65.7113 126.025 65.7018 125.86 65.7018C125.292 65.7018 124.785 65.8226 124.34 66.064C123.899 66.3008 123.551 66.6298 123.296 67.0512C123.04 67.4726 122.912 67.9532 122.912 68.493V75.5385H121.648ZM136.607 79.8566C135.863 79.8566 135.212 79.7596 134.654 79.5654C134.095 79.3761 133.624 79.1156 133.24 78.7842C132.857 78.4528 132.559 78.0811 132.345 77.6691L133.382 76.9873C133.539 77.2619 133.747 77.5318 134.007 77.797C134.273 78.0621 134.616 78.2823 135.037 78.4575C135.463 78.6327 135.987 78.7203 136.607 78.7203C137.573 78.7203 138.352 78.4788 138.943 77.9958C139.54 77.5129 139.838 76.7624 139.838 75.7444V73.287H139.725C139.578 73.6185 139.367 73.9499 139.093 74.2814C138.818 74.6081 138.458 74.8803 138.013 75.0981C137.573 75.3159 137.026 75.4248 136.372 75.4248C135.501 75.4248 134.727 75.2094 134.05 74.7785C133.378 74.3476 132.847 73.7321 132.459 72.9319C132.076 72.127 131.884 71.1682 131.884 70.0555C131.884 68.9523 132.071 67.9816 132.445 67.1436C132.824 66.3055 133.352 65.6521 134.029 65.1833C134.706 64.7146 135.494 64.4802 136.394 64.4802C137.061 64.4802 137.615 64.5986 138.056 64.8353C138.496 65.0673 138.849 65.3562 139.114 65.7018C139.384 66.0475 139.595 66.3836 139.746 66.7103H139.874V64.6294H141.11V75.8226C141.11 76.7458 140.913 77.5058 140.52 78.1024C140.127 78.699 139.592 79.1393 138.915 79.4234C138.238 79.7122 137.469 79.8566 136.607 79.8566ZM136.522 74.2672C137.222 74.2672 137.821 74.0991 138.318 73.7629C138.816 73.422 139.197 72.9343 139.462 72.2998C139.727 71.6654 139.86 70.9101 139.86 70.0342C139.86 69.1819 139.729 68.4267 139.469 67.7686C139.209 67.1057 138.83 66.5849 138.333 66.2061C137.84 65.8226 137.237 65.6308 136.522 65.6308C135.792 65.6308 135.177 65.8273 134.675 66.2203C134.173 66.6133 133.794 67.1436 133.539 67.8112C133.283 68.4741 133.155 69.2151 133.155 70.0342C133.155 70.8675 133.285 71.6038 133.546 72.243C133.806 72.8775 134.187 73.3746 134.689 73.7345C135.191 74.0896 135.802 74.2672 136.522 74.2672ZM152.867 75.7657C151.849 75.7657 150.968 75.529 150.225 75.0555C149.482 74.5773 148.906 73.9168 148.499 73.074C148.097 72.2264 147.896 71.2511 147.896 70.1478C147.896 69.0493 148.097 68.074 148.499 67.2217C148.906 66.3647 149.468 65.6947 150.182 65.2118C150.902 64.7241 151.733 64.4802 152.675 64.4802C153.267 64.4802 153.838 64.5891 154.387 64.8069C154.936 65.02 155.429 65.3491 155.864 65.7941C156.305 66.2345 156.653 66.7908 156.908 67.4632C157.164 68.1308 157.292 68.9215 157.292 69.8353V70.4603H148.769V69.3453H155.999C155.999 68.6445 155.857 68.0148 155.573 67.4561C155.294 66.8926 154.903 66.4476 154.401 66.1208C153.904 65.7941 153.329 65.6308 152.675 65.6308C151.984 65.6308 151.376 65.8154 150.85 66.1848C150.325 66.5541 149.913 67.0418 149.614 67.6478C149.321 68.2539 149.172 68.9168 149.167 69.6365V70.3041C149.167 71.1706 149.316 71.9281 149.614 72.5768C149.917 73.2208 150.346 73.7203 150.9 74.0754C151.454 74.4305 152.11 74.6081 152.867 74.6081C153.383 74.6081 153.835 74.5276 154.224 74.3666C154.617 74.2056 154.946 73.9902 155.211 73.7203C155.481 73.4457 155.684 73.145 155.822 72.8183L157.022 73.2089C156.856 73.6682 156.584 74.092 156.205 74.4802C155.831 74.8685 155.362 75.181 154.799 75.4177C154.24 75.6497 153.596 75.7657 152.867 75.7657ZM165.342 68.7203V75.5385H164.078V64.6294H165.306V66.341H165.42C165.676 65.7823 166.073 65.3349 166.613 64.9987C167.158 64.6578 167.83 64.4873 168.63 64.4873C169.364 64.4873 170.008 64.6412 170.562 64.949C171.121 65.252 171.554 65.6994 171.862 66.2913C172.174 66.8832 172.331 67.61 172.331 68.4717V75.5385H171.066V68.5498C171.066 67.6549 170.815 66.9471 170.314 66.4262C169.816 65.9054 169.149 65.645 168.311 65.645C167.738 65.645 167.229 65.7681 166.784 66.0143C166.339 66.2605 165.986 66.6156 165.725 67.0797C165.47 67.5389 165.342 68.0858 165.342 68.7203ZM183.957 64.6294V65.7302H178.751V64.6294H183.957ZM180.377 62.0157H181.648V72.6904C181.648 73.145 181.727 73.5025 181.883 73.7629C182.039 74.0186 182.243 74.2009 182.494 74.3098C182.745 74.4139 183.012 74.466 183.296 74.466C183.462 74.466 183.604 74.4565 183.722 74.4376C183.841 74.4139 183.945 74.3903 184.035 74.3666L184.305 75.5101C184.182 75.5574 184.03 75.6 183.85 75.6379C183.67 75.6805 183.448 75.7018 183.182 75.7018C182.718 75.7018 182.271 75.6 181.84 75.3964C181.414 75.1928 181.064 74.8898 180.789 74.4873C180.514 74.0849 180.377 73.5853 180.377 72.9887V62.0157ZM190.842 75.5385V64.6294H192.113V75.5385H190.842ZM191.488 62.7544C191.228 62.7544 191.005 62.6668 190.821 62.4916C190.636 62.3117 190.544 62.0962 190.544 61.8453C190.544 61.5943 190.636 61.3813 190.821 61.2061C191.005 61.0261 191.228 60.9362 191.488 60.9362C191.749 60.9362 191.971 61.0261 192.156 61.2061C192.341 61.3813 192.433 61.5943 192.433 61.8453C192.433 62.0962 192.341 62.3117 192.156 62.4916C191.971 62.6668 191.749 62.7544 191.488 62.7544ZM200.721 68.7203V75.5385H199.457V64.6294H200.685V66.341H200.799C201.055 65.7823 201.452 65.3349 201.992 64.9987C202.537 64.6578 203.209 64.4873 204.009 64.4873C204.743 64.4873 205.387 64.6412 205.941 64.949C206.5 65.252 206.933 65.6994 207.241 66.2913C207.553 66.8832 207.709 67.61 207.709 68.4717V75.5385H206.445V68.5498C206.445 67.6549 206.194 66.9471 205.692 66.4262C205.195 65.9054 204.528 65.645 203.69 65.645C203.117 65.645 202.608 65.7681 202.163 66.0143C201.718 66.2605 201.365 66.6156 201.104 67.0797C200.849 67.5389 200.721 68.0858 200.721 68.7203ZM218.086 75.787C217.427 75.787 216.826 75.6592 216.282 75.4035C215.737 75.1431 215.304 74.769 214.982 74.2814C214.66 73.7889 214.499 73.1923 214.499 72.4916C214.499 71.9518 214.601 71.4973 214.804 71.1279C215.008 70.7586 215.297 70.4556 215.671 70.2189C216.045 69.9821 216.488 69.7951 216.999 69.6578C217.51 69.5205 218.074 69.4139 218.689 69.3382C219.3 69.2624 219.816 69.1961 220.238 69.1393C220.664 69.0825 220.988 68.9925 221.211 68.8694C221.433 68.7463 221.544 68.5475 221.544 68.2728V68.0172C221.544 67.2738 221.322 66.689 220.877 66.2629C220.436 65.832 219.802 65.6166 218.973 65.6166C218.187 65.6166 217.546 65.7894 217.049 66.1351C216.556 66.4807 216.211 66.8879 216.012 67.3566L214.811 66.9234C215.058 66.3268 215.399 65.851 215.834 65.4958C216.27 65.136 216.757 64.8779 217.297 64.7217C217.837 64.5607 218.384 64.4802 218.938 64.4802C219.354 64.4802 219.788 64.5347 220.238 64.6436C220.692 64.7525 221.113 64.9419 221.502 65.2118C221.89 65.4769 222.205 65.8486 222.446 66.3268C222.688 66.8003 222.809 67.4016 222.809 68.1308V75.5385H221.544V73.8126H221.466C221.315 74.1346 221.09 74.4471 220.792 74.7501C220.493 75.0531 220.119 75.3017 219.669 75.4958C219.22 75.69 218.692 75.787 218.086 75.787ZM218.256 74.6294C218.928 74.6294 219.511 74.4802 220.003 74.1819C220.496 73.8836 220.874 73.4883 221.14 72.9958C221.409 72.4987 221.544 71.9518 221.544 71.3552V69.7785C221.45 69.8685 221.291 69.949 221.068 70.02C220.851 70.091 220.597 70.1549 220.309 70.2118C220.024 70.2638 219.74 70.3088 219.456 70.3467C219.172 70.3846 218.917 70.4177 218.689 70.4461C218.074 70.5219 217.548 70.6403 217.113 70.8012C216.677 70.9622 216.343 71.1848 216.111 71.4689C215.879 71.7482 215.763 72.1081 215.763 72.5484C215.763 73.2113 216 73.725 216.473 74.0896C216.947 74.4494 217.541 74.6294 218.256 74.6294ZM232.494 60.993V62.6123C232.494 63.0621 232.404 63.5167 232.224 63.976C232.049 64.4305 231.819 64.8566 231.535 65.2544C231.251 65.6521 230.95 65.9883 230.633 66.2629L229.156 65.4532C229.374 65.0934 229.568 64.6886 229.738 64.2387C229.909 63.7842 229.994 63.2444 229.994 62.6194V60.993H232.494ZM236.038 60.993V62.6123C236.038 63.0621 235.948 63.5167 235.768 63.976C235.593 64.4305 235.363 64.8566 235.079 65.2544C234.795 65.6521 234.494 65.9883 234.177 66.2629L232.7 65.4532C232.918 65.0934 233.112 64.6886 233.282 64.2387C233.453 63.7842 233.538 63.2444 233.538 62.6194V60.993H236.038Z" fill="white"/>
</svg>
